<svg width="428" height="168" viewBox="0 0 428 168" fill="none" xmlns="http://www.w3.org/2000/svg">
<g clip-path="url(#clip0_20_479)">
<g clip-path="url(#clip1_20_479)">
<path d="M254.375 68.75C259.311 72.9811 260.945 76.6708 262 83C262.125 86.5 262.125 86.5 262 89C262.66 89 263.32 89 264 89C264.66 87.68 265.32 86.36 266 85C266.66 85 267.32 85 268 85C268 84.34 268 83.68 268 83C268.66 83 269.32 83 270 83C270.348 82.1357 270.348 82.1357 270.703 81.2539C274.013 75.501 281.799 70.1108 288 68C294.901 66.9414 300.976 68.5816 307 72C309.625 74.1044 311.988 76.2954 314 79C314 79.66 314 80.32 314 81C314.66 81 315.32 81 316 81C317.625 82.5 317.625 82.5 319 84C319.371 82.7006 319.371 82.7006 319.75 81.375C322.342 74.3761 325.443 71.1616 332 68C336.854 66.1797 341.709 66.5696 346.562 68.1875C350.32 70.1685 352.966 72.0398 356 75C356 75.99 356 76.98 356 78C356.66 78 357.32 78 358 78C358.25 79.4341 358.474 80.8726 358.688 82.3125C358.879 83.5133 358.879 83.5133 359.074 84.7383C359 87 359 87 357.77 88.7305C353.76 91.607 349.422 91.1346 344.625 91.125C342.695 91.1289 342.695 91.1289 340.727 91.1328C337.383 91.0136 334.279 90.6395 331 90C331.06 91.6052 331.149 93.2093 331.25 94.8125C331.296 95.7058 331.343 96.5991 331.391 97.5195C332.159 100.647 333.388 101.26 336 103C336 103.66 336 104.32 336 105C341.872 107.242 341.872 107.242 348 107C352.966 102.809 355.742 97.9838 358 92C358.743 90.7934 358.743 90.7934 359.5 89.5625C360.797 87.3472 361.522 85.534 362.312 83.125C364.748 76.5271 368.711 72.439 374.812 69C379.852 66.7071 383.709 66.391 389 68C394.446 70.087 399.223 73.8185 402 79C402.743 82.4905 402.855 85.5242 402 89C399.625 91.0625 399.625 91.0625 397 92C396.34 92.33 395.68 92.66 395 93C387.699 93.5309 381.47 93.6109 375 90C376.597 96.9638 378.644 102.121 384 107C386.889 108.444 388.796 108.377 392 108C395.207 105.376 397.432 102.848 399 99C399.99 99 400.98 99 402 99C402.49 101.693 402.346 103.433 400.91 105.785C396.494 111.303 392.019 113.318 385.125 114.875C380.311 115.294 376.224 114.343 372 112C366.99 107.687 364.434 103.033 362 97C361.336 97.9036 360.672 98.8073 359.988 99.7383C359.097 100.93 358.205 102.121 357.312 103.312C356.877 103.907 356.442 104.502 355.994 105.115C352.709 109.471 349.708 112.244 344.312 113.75C336.666 114.327 331.192 113.842 325 109C322.445 105.984 322.445 105.984 320.125 102.75C319.723 102.196 319.321 101.641 318.906 101.07C317.928 99.72 316.963 98.3609 316 97C315.769 97.5195 315.539 98.039 315.301 98.5742C312.279 105.035 308.598 109.858 302 113C294.321 114.807 287.236 113.894 280 111C280 117.93 280 124.86 280 132C281.65 132.33 283.3 132.66 285 133C285 133.99 285 134.98 285 136C277.41 136 269.82 136 262 136C262 135.01 262 134.02 262 133C264.475 132.01 264.475 132.01 267 131C267.038 129.289 267.038 129.289 267.076 127.543C267.17 123.32 267.27 119.097 267.372 114.875C267.416 113.045 267.457 111.216 267.497 109.386C267.555 106.76 267.619 104.134 267.684 101.508C267.7 100.687 267.717 99.866 267.734 99.0203C267.886 93.2277 267.886 93.2277 269 91C265.911 92.2248 265.911 92.2248 264.062 94.875C262.622 97.7564 260.546 99.0605 258 101C257.41 101.601 256.819 102.201 256.211 102.82C247.729 111.183 236.563 119.773 224.688 122.125C219.802 121.959 217.888 120.955 214 118C211.537 113.58 211.657 109.128 211.586 104.199C211.557 102.945 211.557 102.945 211.527 101.665C211.468 99.0058 211.421 96.3467 211.375 93.6875C211.337 91.8795 211.298 90.0716 211.258 88.2637C211.162 83.8426 211.078 79.4214 211 75C207.343 75.6581 204.897 76.4684 201.812 78.5625C198.201 81 198.201 81 196 81C196.139 85.4377 196.287 89.8751 196.438 94.3125C196.477 95.5751 196.516 96.8378 196.557 98.1387C196.619 99.9514 196.619 99.9514 196.684 101.801C196.72 102.916 196.757 104.032 196.795 105.181C196.889 108.079 196.889 108.079 198 111C198.99 111 199.98 111 201 111C201 111.66 201 112.32 201 113C193.74 113 186.48 113 179 113C179 112.34 179 111.68 179 111C180.32 111 181.64 111 183 111C184.009 106.844 184.102 102.956 184.062 98.6875C184.053 97.4332 184.044 96.179 184.035 94.8867C184.024 93.9341 184.012 92.9815 184 92C181.657 93.0043 180.046 93.9538 178.234 95.7695C166.147 107.836 146.5 120.65 129.25 122.375C125.37 121.927 123.175 121.309 120 119C117.48 113.451 116.543 108.829 116.488 102.781C116.47 102.038 116.452 101.295 116.434 100.529C116.38 98.1858 116.346 95.8432 116.312 93.5C116.279 91.8984 116.245 90.2968 116.209 88.6953C116.125 84.797 116.058 80.8988 116 77C110.562 77.6957 108.627 78.8149 105 83C103.855 84.2994 103.855 84.2994 102.688 85.625C99.4793 89.5076 96.6486 93.6759 93.7695 97.8047C93.1856 98.5291 92.6016 99.2536 92 100C91.34 100 90.68 100 90 100C89.7422 100.744 89.4844 101.488 89.2188 102.254C85.4818 110.674 76.2885 116.389 68.043 119.812C57.9279 122.879 46.46 121.485 36.75 117.75C32.8465 115.266 30.0921 112.184 28 108C27.7969 105.758 27.7969 105.758 27.75 103.125C27.7242 102.261 27.6984 101.398 27.6719 100.508C28.0589 97.5497 29.0488 96.208 31 94C35.75 94.875 35.75 94.875 38 96C37.9304 96.8353 37.9304 96.8353 37.8594 97.6875C37.5745 103.71 38.451 108.056 42 113C45.5244 116.524 48.7193 117.385 53.5625 117.812C61.551 117.593 67.1607 113.046 73 108C73.66 107.01 74.32 106.02 75 105C75.66 105 76.32 105 77 105C77.33 104.01 77.66 103.02 78 102C78.66 102 79.32 102 80 102C80.2681 101.422 80.5362 100.845 80.8125 100.25C82.0293 97.9445 83.3033 95.9794 85 94C85.66 94 86.32 94 87 94C87.2664 93.4128 87.5329 92.8257 87.8074 92.2207C89.0257 89.9521 90.3276 88.345 92.082 86.4687C92.6847 85.8229 93.2873 85.1771 93.9082 84.5117C94.8508 83.5159 94.8508 83.5159 95.8125 82.5C96.4293 81.8361 97.0461 81.1723 97.6816 80.4883C103.092 74.7274 108.111 69.8298 116 68C119.856 68.0643 122.081 68.4038 125.312 70.5C129.891 77.2822 129.203 85.898 129 93.75C128.949 95.7654 128.907 97.7811 128.875 99.7969C128.852 100.677 128.829 101.557 128.805 102.464C129.045 105.584 129.719 108.719 132 111C134 111.041 136 111.043 138 111C137.515 110.142 137.03 109.283 136.53 108.399C134.923 104.828 134.595 102.497 134.523 98.6133C134.492 97.428 134.462 96.2427 134.43 95.0215C134.412 93.7975 134.394 92.5735 134.375 91.3125C134.324 88.871 134.27 86.4296 134.211 83.9883C134.193 82.911 134.176 81.8338 134.158 80.7239C134.113 77.9052 134.113 77.9052 133 75C133.687 74.6623 134.374 74.3245 135.082 73.9766C135.983 73.5305 136.884 73.0845 137.812 72.625C138.706 72.1841 139.599 71.7433 140.52 71.2891C143.146 69.9813 143.146 69.9813 146 68C147.989 69.989 147.208 73.9206 147.246 76.6484C147.279 78.2266 147.312 79.8047 147.346 81.3828C147.393 83.8802 147.438 86.3775 147.477 88.875C147.517 91.2789 147.568 93.6823 147.621 96.0859C147.63 96.8329 147.638 97.5798 147.647 98.3494C147.736 102.087 147.875 103.813 150 107C151.418 106.064 152.834 105.126 154.25 104.187C155.039 103.665 155.828 103.143 156.641 102.605C158.811 101.129 160.914 99.5931 163 98C162.67 97.34 162.34 96.68 162 96C161.978 94.1206 161.978 94.1206 162.121 91.8672C162.169 91.0615 162.218 90.2558 162.268 89.4258C162.324 88.584 162.38 87.7423 162.438 86.875C162.49 86.0255 162.542 85.176 162.596 84.3008C162.726 82.2002 162.862 80.1 163 78C161.02 77.505 161.02 77.505 159 77C159 76.34 159 75.68 159 75C159.771 74.746 160.542 74.4921 161.336 74.2305C162.339 73.8863 163.342 73.5421 164.375 73.1875C165.373 72.851 166.37 72.5146 167.398 72.168C170.285 71.1493 170.285 71.1493 172 68C172.66 68 173.32 68 174 68C174.025 68.5954 174.05 69.1908 174.076 69.8042C174.192 72.4947 174.315 75.1848 174.438 77.875C174.477 78.8121 174.516 79.7493 174.557 80.7148C174.619 82.0587 174.619 82.0587 174.684 83.4297C174.72 84.2571 174.757 85.0845 174.795 85.937C174.882 88.0618 174.882 88.0618 176 90C176.548 89.5385 177.096 89.077 177.66 88.6016C182.848 84.3335 188.167 80.4187 193.75 76.6875C194.375 76.2674 195.001 75.8473 195.645 75.4145C201.947 71.251 207.342 68.2431 215 68C218.714 69.5682 220.959 71.5296 223 75C224.071 79.1534 224.197 83.212 224.316 87.4883C224.337 88.1915 224.358 88.8947 224.379 89.6192C224.444 91.8502 224.504 94.0813 224.562 96.3125C224.606 97.8314 224.649 99.3503 224.693 100.869C224.8 104.579 224.901 108.29 225 112C226.98 112 228.96 112 231 112C230.361 111.34 229.721 110.68 229.062 110C226.594 106.41 225.757 103.301 226 99C226.761 96.4463 227.76 94.3816 229 92C229.66 92 230.32 92 231 92C231 91.34 231 90.68 231 90C237.863 85.9086 242.022 84.867 250 85C249.01 78.07 249.01 78.07 248 71C242.323 72.3145 242.323 72.3145 240.539 74.7266C240.087 75.6663 240.087 75.6663 239.625 76.625C239.089 77.7387 238.553 78.8525 238 80C235.085 78.926 233.222 78.2219 231 76C231 74.125 231 74.125 232 72C238.655 66.8237 246.613 64.7253 254.375 68.75ZM334 74C331.377 78.1021 330 81.0744 330 86C335.61 86 341.22 86 347 86C348.24 81.039 347.39 78.4175 345 74C339.967 69.2063 339.05 69.3021 334 74ZM379.875 72.5625C376.995 75.0041 375.383 76.5022 374 80C374.277 82.3407 374.605 84.6763 375 87C377.479 87.0268 379.958 87.0468 382.438 87.0625C383.498 87.0751 383.498 87.0751 384.58 87.0879C386.387 87.0965 388.194 87.0522 390 87C390.33 86.67 390.66 86.34 391 86C390.974 83.9933 390.974 83.9933 390.688 81.6875C390.609 80.9076 390.53 80.1277 390.449 79.3242C389.976 76.8774 389.295 75.1241 388 73C384.576 70.7171 383.606 70.6972 379.875 72.5625ZM284 76C282.445 76.9358 282.445 76.9358 280.859 77.8906C278.671 79.7252 278.063 80.6539 277.543 83.4973C277.489 86.5482 277.641 89.5203 277.875 92.5625C277.916 93.6034 277.957 94.6443 278 95.7168C278.154 101.438 278.154 101.438 280.903 106.246C284.162 108.972 286.607 110 290.875 110C296.473 108.209 299.763 105.299 302.555 100.109C304.711 95.1621 306.009 91.3911 306 86C306.66 85.34 307.32 84.68 308 84C304.822 79.8236 302.996 77.8042 298 76C297.67 75.01 297.34 74.02 297 73C291.59 72.7249 288.442 72.6098 284 76ZM189 86C188.67 86.66 188.34 87.32 188 88C188.99 87.67 189.98 87.34 191 87C190.34 86.67 189.68 86.34 189 86ZM273 86C272.01 87.485 272.01 87.485 271 89C272.32 88.34 273.64 87.68 275 87C274.34 86.67 273.68 86.34 273 86ZM243.375 89.9375C240.009 93.4385 239.099 96.1101 238.91 100.91C239.016 103.362 239.315 105.641 240 108C245.76 104.885 245.76 104.885 251 101C251 100.34 251 99.68 251 99C251.583 98.7319 252.165 98.4637 252.766 98.1875C255.028 96.9852 256.806 95.6617 258.75 94C259.364 93.4844 259.977 92.9687 260.609 92.4375C262.232 91.0938 262.232 91.0938 262 89C259.008 90.3637 256.71 91.9491 254.25 94.125C253.178 95.0737 252.105 96.0225 251 97C250.67 93.7 250.34 90.4 250 87C246.426 87 245.908 87.561 243.375 89.9375Z" fill="#D4A43A"/>
<path d="M54 16C56.1875 16.3125 56.1875 16.3125 58 17C57.9175 17.7837 57.835 18.5675 57.75 19.375C58.095 24.3763 59.9865 28.4516 62 33C62.9879 31.9246 63.965 30.8393 64.9375 29.75C65.4828 29.1467 66.0281 28.5434 66.5899 27.9219C68.0622 25.9153 68.5753 24.43 69 22C70.6562 21.6178 72.3246 21.286 74 21C75 22 75 22 75.0625 24.5625C75.0419 25.3669 75.0213 26.1712 75 27C74.34 27 73.68 27 73 27C72.329 29.6031 71.6631 32.2074 71 34.8125C70.7139 35.9195 70.7139 35.9195 70.4219 37.0488C69.6474 40.1054 69 42.8337 69 46C69.7219 46.4331 70.4438 46.8663 71.1875 47.3125C75.487 49.8921 78.3891 53.1673 80 58C80.1279 60.6739 80.044 63.321 80 66C75.7071 65.523 73.7148 63.202 71 60C69.5 56.5 69.5 56.5 68 53C65.8826 50.0729 64.4461 48.3234 60.8516 47.5195C56.6074 47.2587 54.5689 47.5885 51.0625 50.125C47.6697 54.8544 46.3815 59.1852 47.0001 65C48.734 69.5517 51.3841 71.1 55.6211 73.0273C61.2734 75.3383 66.9655 77.5047 72.875 79.0625C78.39 80.717 81.8632 83.1204 85 88C85.6875 90.5 85.6875 90.5 85 93C81.9394 95.9711 79.3308 98 75 98C74.9175 97.2163 74.835 96.4325 74.75 95.625C74.3017 92.9176 74.3017 92.9176 72.3125 92C71.5494 91.67 70.7863 91.34 70 91C68.7316 89.8553 68.7316 89.8553 67.4375 88.6875C61.9842 84.0191 54.963 81.5548 48.1876 79.4375C42.1946 77.5219 37.2358 74.5127 34.0001 69C32.3926 62.5261 32.6976 57.7794 36.0001 52C37.5626 50.0625 37.5626 50.0625 39.0001 49C39.6601 49 40.3201 49 41.0001 49C41.0001 48.34 41.0001 47.68 41.0001 47C43.9701 46.34 46.94 45.68 50 45C50 44.34 50 43.68 50 43C47.69 43.33 45.3801 43.66 43.0001 44C42.71 43.1125 42.71 43.1125 42.4141 42.207C41.6211 39.8006 40.8109 37.4004 40.0001 35C39.6907 34.0512 39.3813 33.1025 39.0626 32.125C37.7969 29.5936 36.3679 28.4996 34.0001 27C34.3301 25.68 34.6601 24.36 35.0001 23C36.6501 22.67 38.3001 22.34 40.0001 22C40.3713 22.8869 40.7426 23.7738 41.1251 24.6875C43.3306 28.584 45.4613 30.3263 49.0001 33C49.6726 30.6684 50.3385 28.3348 51 26C51.2269 25.2575 51.4538 24.515 51.6875 23.75C52.1864 21.7622 52.1864 21.7622 51 19C52.25 17.4375 52.25 17.4375 54 16ZM51 44C53.97 44 56.94 44 60 44C59.67 43.34 59.34 42.68 59 42C54.507 41.575 54.507 41.575 51 44Z" fill="#E9AF2E"/>
<path d="M123 69C124.938 71.0625 124.938 71.0625 126 73C125.34 73.33 124.68 73.66 124 74C123.505 73.01 123.505 73.01 123 72C121.35 72 119.7 72 118 72C118.163 72.811 118.326 73.622 118.494 74.4575C119.082 78.5724 119.125 82.531 119.098 86.6797C119.096 87.4925 119.095 88.3052 119.093 89.1426C119.088 91.7201 119.075 94.2975 119.062 96.875C119.057 98.6302 119.053 100.385 119.049 102.141C119.038 106.427 119.021 110.714 119 115C116.586 111.256 116.655 107.482 116.586 103.172C116.567 102.423 116.547 101.674 116.527 100.902C116.468 98.5182 116.421 96.1343 116.375 93.75C116.337 92.1302 116.298 90.5104 116.258 88.8906C116.162 84.9273 116.078 80.9638 116 77C110.562 77.6957 108.627 78.8149 105 83C103.855 84.2994 103.855 84.2994 102.688 85.625C99.4793 89.5076 96.6486 93.676 93.7695 97.8047C93.1856 98.5292 92.6016 99.2536 92 100C91.34 100 90.68 100 90 100C89.7422 100.744 89.4844 101.488 89.2188 102.254C85.4818 110.674 76.2885 116.389 68.043 119.813C57.9279 122.879 46.46 121.485 36.75 117.75C32.8465 115.266 30.0921 112.184 28 108C27.7969 105.758 27.7969 105.758 27.75 103.125C27.7242 102.261 27.6984 101.398 27.6719 100.508C28.0589 97.5498 29.0488 96.208 31 94C35.75 94.875 35.75 94.875 38 96C37.9304 96.8353 37.9304 96.8353 37.8594 97.6875C37.5745 103.71 38.451 108.056 42 113C45.5244 116.524 48.7193 117.385 53.5625 117.813C61.551 117.593 67.1607 113.046 73 108C73.66 107.01 74.32 106.02 75 105C75.66 105 76.32 105 77 105C77.33 104.01 77.66 103.02 78 102C78.66 102 79.32 102 80 102C80.2681 101.423 80.5362 100.845 80.8125 100.25C82.0293 97.9445 83.3033 95.9795 85 94C85.66 94 86.32 94 87 94C87.2664 93.4129 87.5329 92.8257 87.8074 92.2207C89.0257 89.9521 90.3276 88.3451 92.082 86.4688C92.6847 85.8229 93.2873 85.1771 93.9082 84.5117C94.5366 83.8479 95.165 83.184 95.8125 82.5C96.4293 81.8362 97.0461 81.1723 97.6816 80.4883C104.694 73.021 112.05 65.7793 123 69Z" fill="#C29538"/>
<path d="M40.0001 51C41.6501 51.33 43.3001 51.66 45.0001 52C44.6701 52.66 44.3401 53.32 44.0001 54C44.0619 56.0491 44.0619 56.0491 44.3751 58.3125C44.5104 59.4514 44.5104 59.4514 44.6485 60.6133C44.7645 61.4009 44.8805 62.1885 45.0001 63C45.0671 63.8585 45.1341 64.717 45.2032 65.6016C45.8073 68.2093 45.8073 68.2093 48.336 69.6602C49.3389 70.1229 50.3418 70.5857 51.3751 71.0625C53.0012 71.8147 53.0012 71.8147 54.6602 72.582C60.6214 75.1129 66.6118 77.3986 72.8751 79.0625C78.39 80.717 81.8632 83.1204 85.0001 88C85.6876 90.5 85.6876 90.5 85.0001 93C81.9394 95.9711 79.3308 98 75.0001 98C74.9176 97.2163 74.8351 96.4325 74.7501 95.625C74.3017 92.9176 74.3017 92.9176 72.3126 92C71.5494 91.67 70.7863 91.34 70.0001 91C69.1544 90.2369 68.3088 89.4737 67.4376 88.6875C61.9842 84.0191 54.963 81.5548 48.1876 79.4375C42.1946 77.5219 37.2358 74.5127 34.0001 69C32.9982 64.1865 32.5638 59.7474 34.0001 55C35.6501 54.67 37.3001 54.34 39.0001 54C39.3301 53.01 39.6601 52.02 40.0001 51Z" fill="#C99E3C"/>
<path d="M353.438 72.5C354.706 73.7375 354.706 73.7375 356 75C356 75.99 356 76.98 356 78C356.66 78 357.32 78 358 78C358.25 79.4341 358.474 80.8726 358.688 82.3125C358.879 83.5133 358.879 83.5133 359.074 84.7383C359 87 359 87 357.77 88.7305C353.76 91.607 349.422 91.1346 344.625 91.125C342.695 91.1289 342.695 91.1289 340.727 91.1328C337.383 91.0136 334.279 90.6396 331 90C331.072 90.6871 331.144 91.3742 331.219 92.082C331.312 92.9831 331.404 93.8842 331.5 94.8125C331.593 95.7058 331.686 96.5992 331.781 97.5195C332 100 332 100 332 103C331.01 103 330.02 103 329 103C328.752 102.381 328.505 101.763 328.25 101.125C327.183 98.8446 327.183 98.8446 324.938 98.0625C324.298 97.7119 323.659 97.3613 323 97C322.65 95.3368 322.318 93.6697 322 92C320.687 90.6469 319.355 89.3113 318 88C318 87.01 318 86.02 318 85C317.34 85 316.68 85 316 85C316.33 84.34 316.66 83.68 317 83C317.66 83.33 318.32 83.66 319 84C319.248 83.1338 319.495 82.2675 319.75 81.375C322.342 74.3761 325.443 71.1616 332 68C339.778 65.0834 347.134 67.6023 353.438 72.5ZM334 74C331.377 78.1021 330 81.0744 330 86C335.61 86 341.22 86 347 86C348.24 81.039 347.39 78.4175 345 74C339.967 69.2063 339.05 69.3021 334 74Z" fill="#BB8F33"/>
<path d="M278 91C278.027 93.0833 278.046 95.1666 278.062 97.25C278.074 98.4102 278.086 99.5703 278.098 100.766C278.018 103.41 277.786 105.498 277 108C277.66 108 278.32 108 279 108C279.33 115.92 279.66 123.84 280 132C281.65 132.33 283.3 132.66 285 133C285 133.99 285 134.98 285 136C277.41 136 269.82 136 262 136C262 135.01 262 134.02 262 133C263.65 132.34 265.3 131.68 267 131C267.33 118.46 267.66 105.92 268 93C275 91 275 91 278 91Z" fill="#E6AF37"/>
<path d="M28 125C38.8046 124.977 49.6092 124.959 60.4138 124.948C65.4302 124.943 70.4467 124.936 75.4631 124.925C80.3001 124.914 85.137 124.908 89.974 124.905C91.8237 124.903 93.6734 124.9 95.523 124.894C98.1045 124.887 100.686 124.886 103.267 124.887C104.04 124.883 104.812 124.879 105.608 124.876C110.886 124.886 110.886 124.886 112 126C112 127.65 112 129.3 112 131C84.28 131 56.56 131 28 131C28 129.02 28 127.04 28 125Z" fill="#B58727"/>
<path d="M120.312 70.8125C123.171 71.0119 124.598 71.4819 127 73C131.006 84.2179 129.43 98.181 128.121 109.812C127.816 112.046 127.816 112.046 129 114C125.785 115.607 122.564 115.057 119 115C117.946 110.722 117.886 106.591 117.938 102.215C117.941 101.477 117.945 100.739 117.949 99.9782C117.961 97.6312 117.98 95.2844 118 92.9375C118.027 89.8425 118.047 86.7475 118.062 83.6523C118.071 82.945 118.079 82.2376 118.088 81.5088C118.104 78.1577 117.883 75.2273 117 72C118 71 118 71 120.312 70.8125Z" fill="#E7AD34"/>
<path d="M101 43C101.099 47.6264 101.172 52.2522 101.22 56.8794C101.24 58.4527 101.267 60.026 101.302 61.5991C101.35 63.8631 101.373 66.1262 101.391 68.3906C101.411 69.0918 101.432 69.793 101.453 70.5154C101.455 73.9638 101.227 75.7037 99.1006 78.4756C97 80 97 80 95 80C94.7525 80.6187 94.505 81.2375 94.25 81.875C93 84 93 84 89 86C89 75.11 89 64.22 89 53C88.01 52.67 87.02 52.34 86 52C86 51.34 86 50.68 86 50C86.6033 49.7461 87.2066 49.4921 87.8281 49.2305C91.7228 47.5533 97.0669 43 101 43Z" fill="#EAB234"/>
<path d="M31 94C35.75 94.875 35.75 94.875 38 96C37.9304 96.8353 37.9304 96.8353 37.8594 97.6875C37.5745 103.71 38.451 108.056 42 113C45.6165 116.617 48.7879 117.35 53.75 117.688C59.7976 117.522 63.181 115.452 67.7461 111.629C70.2237 109.838 72.0344 109.524 75 109C75.33 108.34 75.66 107.68 76 107C77.32 107 78.64 107 80 107C80 106.01 80 105.02 80 104C81.32 104 82.64 104 84 104C80.5064 111.28 76.8999 116.266 69.2461 119.309C58.5627 122.597 47.0963 121.729 36.75 117.75C32.8465 115.266 30.0921 112.184 28 108C27.7969 105.758 27.7969 105.758 27.75 103.125C27.7242 102.261 27.6984 101.398 27.6719 100.508C28.0589 97.5498 29.0488 96.208 31 94Z" fill="#AF8B3D"/>
<path d="M374 82C373.959 83.0931 373.918 84.1862 373.875 85.3125C373.679 89.0889 373.679 89.0889 376 92C376.47 93.4271 376.905 94.8661 377.313 96.3125C378.768 100.864 380.673 103.588 384 107C386.889 108.444 388.797 108.377 392 108C395.207 105.376 397.432 102.848 399 99C399.99 99 400.98 99 402 99C402.49 101.693 402.346 103.433 400.91 105.785C396.587 111.186 391.86 113.598 385.063 114.875C380.628 115.29 376.785 114.369 373 112C371.53 109.508 371.109 107.558 370.563 104.75C370.284 103.884 370.284 103.884 370 103C369.01 102.67 368.02 102.34 367 102C367 101.34 367 100.68 367 100C366.34 100 365.68 100 365 100C363.75 93.375 363.75 93.375 366 90C366.66 90 367.32 90 368 90C368.103 89.2369 368.206 88.4737 368.313 87.6875C369.168 84.3431 370.297 82 374 82Z" fill="#E6B034"/>
<path d="M310 79C311.32 79 312.64 79 314 79C314 79.66 314 80.32 314 81C314.66 81 315.32 81 316 81C316 82.32 316 83.64 316 85C316.66 85 317.32 85 318 85C318 85.99 318 86.98 318 88C318.619 88.2475 319.238 88.495 319.875 88.75C322.417 90.2451 322.96 91.2797 324 94C324.144 94.7219 324.289 95.4438 324.438 96.1875C324.623 96.7856 324.809 97.3838 325 98C325.99 98.33 326.98 98.66 328 99C328.688 101.062 328.688 101.062 329 103C329.99 103 330.98 103 332 103C332.33 102.34 332.66 101.68 333 101C333.99 101.66 334.98 102.32 336 103C336 103.66 336 104.32 336 105C340.982 106.916 345.727 107.555 351 108C349.75 109.5 349.75 109.5 348 111C346.68 111 345.36 111 344 111C344 111.66 344 112.32 344 113C340.964 114.012 339.325 114.068 336.188 113.812C335.356 113.757 334.525 113.702 333.668 113.645C327.485 112.151 323.94 108.101 320.312 103.125C319.566 102.117 318.82 101.109 318.051 100.07C315.054 95.5838 313 92.4673 313 87C312.34 87 311.68 87 311 87C311 85.68 311 84.36 311 83C310.01 83.495 310.01 83.495 309 84C309.33 82.35 309.66 80.7 310 79Z" fill="#E0AE34"/>
<path d="M216.5 72.125C219 73 219 73 220.148 75.1294C221.149 78.5015 221.194 81.2886 221.125 84.8047C221.102 86.7634 221.102 86.7634 221.078 88.7617C221.041 90.8176 221 92.8734 220.959 94.9292C220.923 96.9292 220.899 98.9295 220.875 100.93C220.852 102.118 220.829 103.306 220.805 104.531C221.02 108.364 221.82 111.363 223 115C220.668 116.206 218.504 117.165 216 118C214.714 110.571 214.714 110.571 216 107C214.68 106.67 213.36 106.34 212 106C211.951 101.764 211.914 97.5285 211.89 93.2925C211.88 91.8511 211.866 90.4096 211.849 88.9683C211.825 86.8981 211.814 84.8281 211.805 82.7578C211.794 81.5115 211.784 80.2651 211.773 78.981C212 76 212 76 214 74C213.34 73.67 212.68 73.34 212 73C214 72 214 72 216.5 72.125Z" fill="#EBB337"/>
<path d="M287.312 72.5352C287.869 72.6886 288.426 72.842 289 73C287 75 287 75 285.066 76.0992C282.644 77.5481 280.859 78.867 279 81C278.023 84.9436 278.327 88.6045 278.688 92.625C278.75 94.1796 278.75 94.1796 278.814 95.7657C279.16 101.773 279.16 101.773 282.398 106.652C285.454 108.235 287.546 108.93 291 109C295.719 107.301 298.314 105.208 301 101C302.463 97.7117 303.766 94.3802 305 91C305.66 91.66 306.32 92.32 307 93C306.625 95.375 306.625 95.375 306 98C305.702 101.776 305.702 101.776 307 104C306.361 104.124 305.721 104.248 305.062 104.375C304.382 104.581 303.701 104.788 303 105C302.505 105.99 302.505 105.99 302 107C301.01 107.33 300.02 107.66 299 108C299.776 111.075 299.776 111.075 302 113C294.102 114.545 286.529 113.972 279 111C279 110.01 279 109.02 279 108C278.34 108 277.68 108 277 108C277.33 102.39 277.66 96.78 278 91C276.35 91.66 274.7 92.32 273 93C270.688 92.625 270.688 92.625 269 92C270.32 90.35 271.64 88.7 273 87C272.01 87.495 272.01 87.495 271 88C268.375 87.0625 268.375 87.0625 266 86C266.66 85.67 267.32 85.34 268 85C268 84.34 268 83.68 268 83C268.66 83 269.32 83 270 83C270.385 82.128 270.385 82.128 270.777 81.2383C274.551 74.3305 279.538 70.9462 287.312 72.5352Z" fill="#CB993F"/>
<path d="M36 22C38.4375 22.125 38.4375 22.125 41 23C42.0625 25.3125 42.0625 25.3125 43 28C45.0204 30.2719 45.0204 30.2719 47 32C46.67 32.66 46.34 33.32 46 34C45.34 34 44.68 34 44 34C44 35.98 44 37.96 44 40C45.32 40.33 46.64 40.66 48 41C48.33 40.01 48.66 39.02 49 38C49 38.66 49 39.32 49 40C49.9642 39.9768 50.9284 39.9536 51.9219 39.9297C53.8168 39.9026 53.8168 39.9026 55.75 39.875C57.003 39.8518 58.2559 39.8286 59.5469 39.8047C62.7282 39.9846 64.3652 40.31 67 42C66.34 42.66 65.68 43.32 65 44C62.6172 43.9766 62.6172 43.9766 59.875 43.625C58.9649 43.5141 58.0548 43.4033 57.1172 43.2891C56.4185 43.1937 55.7198 43.0983 55 43C55.6187 43.2887 56.2375 43.5775 56.875 43.875C59 45 59 45 61 47C59.4222 47.0928 59.4222 47.0928 57.8125 47.1875C53.2549 48.1588 51.8331 49.3574 49 53C46.6092 58.3508 46.2742 63.3911 48 69C46.68 68.34 45.36 67.68 44 67C44 62.71 44 58.42 44 54C43.34 53.67 42.68 53.34 42 53C41.34 52.67 40.68 52.34 40 52C39.67 52.66 39.34 53.32 39 54C36.9375 54.625 36.9375 54.625 35 55C36.0487 52.3781 36.6493 51.2063 39.125 49.75C39.7437 49.5025 40.3625 49.255 41 49C41 48.34 41 47.68 41 47C43.97 46.34 46.94 45.68 50 45C50 44.34 50 43.68 50 43C47.69 43.33 45.38 43.66 43 44C42.71 43.1125 42.71 43.1125 42.4141 42.207C41.6211 39.8006 40.8109 37.4004 40 35C39.6906 34.0512 39.3812 33.1025 39.0625 32.125C37.7968 29.5936 36.3679 28.4996 34 27C34.875 23.125 34.875 23.125 36 22Z" fill="#BB9B47"/>
<path d="M145 73C145.167 77.9661 145.328 82.9322 145.482 87.8987C145.536 89.5895 145.591 91.2803 145.648 92.971C145.73 95.3959 145.805 97.8209 145.879 100.246C145.906 101.007 145.933 101.767 145.961 102.55C146.013 104.366 146.012 106.183 146 108C145 109 145 109 142.062 109.25C141.052 109.168 140.041 109.085 139 109C136.78 105.67 136.741 104.523 136.691 100.633C136.654 99.0569 136.654 99.0569 136.615 97.4492C136.58 95.241 136.549 93.0326 136.521 90.8242C136.495 89.7711 136.469 88.7179 136.441 87.6328C136.428 86.6726 136.414 85.7124 136.401 84.7232C135.934 81.553 134.727 79.6655 133 77C133 76.34 133 75.68 133 75C137.142 72.9918 140.44 72.9141 145 73Z" fill="#E9B030"/>
<path d="M191 87C192.32 87 193.64 87 195 87C195.049 88.3136 195.098 89.6271 195.148 90.9805C195.223 92.7162 195.299 94.4518 195.375 96.1875C195.406 97.0518 195.437 97.9161 195.469 98.8066C195.673 103.259 195.937 106.95 198 111C198.99 111 199.98 111 201 111C201 111.66 201 112.32 201 113C193.74 113 186.48 113 179 113C179 112.34 179 111.68 179 111C180.32 111 181.64 111 183 111C184.236 105.954 183.901 101.212 183.645 96.0586C184 93 184 93 185.824 90.5977C188 89 188 89 191 89C191 88.34 191 87.68 191 87Z" fill="#E7B138"/>
<path d="M350 70C352.308 71.499 354.003 73.049 356 75C356 75.99 356 76.98 356 78C356.66 78 357.32 78 358 78C358.25 79.4341 358.474 80.8726 358.688 82.3125C358.815 83.113 358.943 83.9135 359.074 84.7382C359 87 359 87 357.77 88.7304C353.684 91.6614 349.094 91.122 344.25 91.0625C343.553 91.058 342.855 91.0534 342.137 91.0488C340.424 91.0371 338.712 91.0191 337 91C337 90.34 337 89.68 337 89C334.69 88.67 332.38 88.34 330 88C330 87.67 330 87.34 330 87C335.28 86.67 340.56 86.34 346 86C347.004 81.9831 347.11 81.4881 345.625 78C344.517 75.3487 343.639 72.8048 343 70C345.815 68.5925 347.008 69.0479 350 70Z" fill="#E8B034"/>
<path d="M40 51C41.65 51.33 43.3 51.66 45 52C44.67 52.66 44.34 53.32 44 54C44.0985 56.2773 44.3994 58.4917 44.7071 60.75C45 63 45 63 45.0625 65.8125C46.6549 69.528 50.4051 70.5342 54 72C52.68 73.65 51.36 75.3 50 77C39.1054 75.8934 39.1054 75.8934 35.875 72.5C32.8871 66.9226 32.1714 61.1048 34 55C35.65 54.67 37.3 54.34 39 54C39.33 53.01 39.66 52.02 40 51Z" fill="#F2994A"/>
<path d="M28 125C55.39 125 82.78 125 111 125C111 126.65 111 128.3 111 130C86.58 130 62.16 130 37 130C37 129.67 37 129.34 37 129C60.76 129 84.52 129 109 129C109 128.34 109 127.68 109 127C82.27 127 55.54 127 28 127C28 126.34 28 125.68 28 125Z" fill="#A27F3E"/>
<path d="M198 74C198.99 74.33 199.98 74.66 201 75C201.33 75.99 201.66 76.98 202 78C198.25 81 198.25 81 196 81C196 89.25 196 97.5 196 106C195.67 106 195.34 106 195 106C195 99.73 195 93.46 195 87C193.68 87 192.36 87 191 87C191 87.66 191 88.32 191 89C190.113 89.2681 189.226 89.5362 188.312 89.8125C183.192 91.6482 179.701 94.0251 176 98C175.01 97.67 174.02 97.34 173 97C173 96.01 173 95.02 173 94C174.32 94 175.64 94 177 94C177 93.34 177 92.68 177 92C175.35 92.33 173.7 92.66 172 93C172.33 91.68 172.66 90.36 173 89C174.32 89 175.64 89 177 89C178.792 88.0806 178.792 88.0806 180.461 86.7344C181.098 86.2561 181.735 85.7779 182.391 85.2852C183.045 84.7786 183.7 84.272 184.375 83.75C186.911 81.8254 189.451 79.9068 192 78C192.564 77.5753 193.127 77.1505 193.708 76.7129C195.289 75.5781 195.289 75.5781 198 74ZM189 86C188.67 86.66 188.34 87.32 188 88C188.99 87.67 189.98 87.34 191 87C190.34 86.67 189.68 86.34 189 86Z" fill="#B8903A"/>
<path d="M172 68C172.66 68 173.32 68 174 68C174.33 74.93 174.66 81.86 175 89C174.34 89 173.68 89 173 89C173.33 89.99 173.66 90.98 174 92C174.99 92 175.98 92 177 92C177 92.66 177 93.32 177 94C175.68 94 174.36 94 173 94C173.33 95.65 173.66 97.3 174 99C172.68 98.67 171.36 98.34 170 98C170 97.01 170 96.02 170 95C168.35 94.67 166.7 94.34 165 94C164.946 91.2081 164.906 88.4172 164.875 85.625C164.858 84.8309 164.841 84.0369 164.824 83.2188C164.807 81.1451 164.897 79.0712 165 77C165.66 76.34 166.32 75.68 167 75C167 74.01 167 73.02 167 72C167.639 71.7113 168.279 71.4225 168.938 71.125C171.152 70.1718 171.152 70.1718 172 68Z" fill="#E6AD33"/>
<path d="M145 68C145.66 68.33 146.32 68.66 147 69C147.025 70.0341 147.05 71.0681 147.076 72.1335C147.17 75.9821 147.27 79.8306 147.372 83.679C147.416 85.3423 147.457 87.0057 147.497 88.6692C147.555 91.0647 147.619 93.4601 147.684 95.8555C147.7 96.5952 147.717 97.335 147.734 98.0972C147.841 101.85 148.253 105.329 149 109C148 110 148 110 145.438 110.062C144.633 110.042 143.829 110.021 143 110C142.67 110.66 142.34 111.32 142 112C140 114 140 114 137.977 114.266C136.813 114.258 136.813 114.258 135.625 114.25C134.854 114.255 134.083 114.26 133.289 114.266C130.801 113.977 129.158 113.241 127 112C127.33 109.69 127.66 107.38 128 105C128.289 105.619 128.577 106.238 128.875 106.875C129.937 109.133 129.937 109.133 132 111C135.083 111.167 135.083 111.167 138 111C137.263 109.898 137.263 109.898 136.512 108.773C133.995 103.739 134.687 98.1089 134.812 92.625C134.826 91.5074 134.84 90.3898 134.854 89.2383C134.889 86.4917 134.938 83.7461 135 81C135.66 81.33 136.32 81.66 137 82C137.025 82.7166 137.05 83.4331 137.076 84.1714C137.192 87.4061 137.315 90.6405 137.438 93.875C137.477 95.0029 137.516 96.1309 137.557 97.293C137.619 98.9075 137.619 98.9075 137.684 100.555C137.72 101.55 137.757 102.545 137.795 103.57C137.85 106.008 137.85 106.008 139 108C140.98 108 142.96 108 145 108C145 96.45 145 84.9 145 73C143.35 73 141.7 73 140 73C141.65 71.35 143.3 69.7 145 68Z" fill="#A8843B"/>
<path d="M390 72C394.383 72.1719 396.52 72.6015 399.938 75.4375C402.526 78.9799 402.598 82.4549 402.664 86.7305C402 89 402 89 399.887 90.8203C396.332 92.2729 393.986 92.1096 390.188 91.6875C389.026 91.5676 387.865 91.4477 386.668 91.3242C385.788 91.2172 384.907 91.1102 384 91C384 89.68 384 88.36 384 87C386.64 87 389.28 87 392 87C392.054 85.5629 392.093 84.1252 392.125 82.6875C392.148 81.887 392.171 81.0865 392.195 80.2617C392.158 77.7161 392.158 77.7161 390 75C390 74.01 390 73.02 390 72Z" fill="#E9B53F"/>
<path d="M123 69C124.938 71.0625 124.938 71.0625 126 73C125.01 73.495 125.01 73.495 124 74C123.67 73.34 123.34 72.68 123 72C121.35 72 119.7 72 118 72C118.244 73.2164 118.244 73.2164 118.494 74.4575C119.082 78.5724 119.125 82.5309 119.098 86.6796C119.096 87.4924 119.095 88.3052 119.093 89.1426C119.088 91.7201 119.075 94.2975 119.062 96.875C119.057 98.6302 119.053 100.385 119.049 102.141C119.038 106.427 119.021 110.714 119 115C116.586 111.256 116.655 107.482 116.586 103.172C116.567 102.423 116.547 101.674 116.527 100.902C116.468 98.5182 116.421 96.1342 116.375 93.75C116.337 92.1301 116.298 90.5104 116.258 88.8906C116.162 84.9272 116.078 80.9637 116 77C110.6 77.6563 108.654 78.9395 105 83C104.01 83.495 104.01 83.495 103 84C102.67 83.34 102.34 82.68 102 82C100.35 82 98.7 82 97 82C103.761 73.729 111.424 65.5954 123 69Z" fill="#B7903A"/>
<path d="M244 89C243.361 90.1138 242.721 91.2275 242.062 92.375C239.643 97.1465 239.217 101.712 239 107C232.375 108.125 232.375 108.125 229 107C229 102.71 229 98.42 229 94C229.99 93.67 230.98 93.34 232 93C232.33 92.01 232.66 91.02 233 90C234.742 89.2344 234.742 89.2344 236.875 88.75C237.923 88.4948 237.923 88.4948 238.992 88.2344C241 88 241 88 244 89Z" fill="#EAB032"/>
<path d="M368 85C368.33 85 368.66 85 369 85C369 86.98 369 88.96 369 91C368.01 90.67 367.02 90.34 366 90C365.246 94.9791 365.246 94.9791 365 100C365.66 100 366.32 100 367 100C370.057 102.393 371.527 105.464 373 109C372.67 109.99 372.34 110.98 372 112C370.884 110.823 369.783 109.633 368.688 108.438C368.073 107.776 367.458 107.115 366.824 106.434C364.567 103.422 363.378 100.497 362 97C361.336 97.9036 360.672 98.8073 359.988 99.7383C359.097 100.93 358.205 102.121 357.312 103.312C356.877 103.907 356.442 104.502 355.994 105.115C353.359 108.609 351.072 111.13 347 113C346.01 113 345.02 113 344 113C344 112.34 344 111.68 344 111C345.65 110.34 347.3 109.68 349 109C349 108.01 349 107.02 349 106C350.207 104.422 350.207 104.422 351.812 102.75C354.806 99.4194 356.369 96.1933 358 92C358.968 90.3146 359.957 88.6398 361 87C361.33 87.99 361.66 88.98 362 90C363.98 89.34 365.96 88.68 368 88C368 87.01 368 86.02 368 85Z" fill="#987224"/>
<path d="M212 106C213.32 106.33 214.64 106.66 216 107C215.979 108.134 215.959 109.269 215.938 110.438C215.584 113.816 215.584 113.816 217 115C219.054 114.591 219.054 114.591 221 114C221.33 112.35 221.66 110.7 222 109C222.99 109 223.98 109 225 109C225 109.99 225 110.98 225 112C227.97 112.33 230.94 112.66 234 113C234.66 114.65 235.32 116.3 236 118C224.933 123.303 224.933 123.303 219.008 121.34C216.16 119.881 214.254 118.409 212.563 115.688C211.875 112.405 211.869 109.344 212 106Z" fill="#D1A138"/>
<path d="M307 86C310.362 89.0965 312.949 91.4803 314 96C314.069 100.219 313.494 103.206 311.25 106.812C308.082 109.892 305.685 111.888 301.188 112.188C300.466 112.126 299.744 112.064 299 112C299.33 111.01 299.66 110.02 300 109C299.34 108.67 298.68 108.34 298 108C298.639 107.897 299.279 107.794 299.938 107.688C300.958 107.347 300.958 107.347 302 107C302.33 106.01 302.66 105.02 303 104C303.99 103.67 304.98 103.34 306 103C305.34 101.68 304.68 100.36 304 99C304.66 98.01 305.32 97.02 306 96C306.204 93.7461 306.204 93.7461 306.062 91.375C306.008 89.9175 305.98 88.4583 306 87C306.33 86.67 306.66 86.34 307 86Z" fill="#E8B139"/>
<path d="M56.1875 16.3125C56.7856 16.5393 57.3838 16.7662 58 17C57.9175 17.7837 57.835 18.5675 57.75 19.375C58.0949 24.3762 59.9865 28.4515 62 33C62.9878 31.9245 63.9649 30.8392 64.9375 29.75C65.7554 28.845 65.7554 28.845 66.5898 27.9218C68.0621 25.9153 68.5753 24.4299 69 22C70.6561 21.6178 72.3246 21.286 74 21C75 22 75 22 75.0625 24.5625C75.0419 25.3668 75.0213 26.1712 75 27C74.34 27 73.68 27 73 27C72.01 30.3 71.02 33.6 70 37C69.67 36.01 69.34 35.02 69 34C68.3735 34.1559 67.747 34.3119 67.1016 34.4726C66.2843 34.6673 65.467 34.8619 64.625 35.0625C63.4068 35.3583 63.4068 35.3583 62.1641 35.6601C60 36 60 36 58 35C57.5859 32.7148 57.5859 32.7148 57.375 29.9375C57.3002 29.0184 57.2255 28.0993 57.1484 27.1523C57.0995 26.442 57.0505 25.7318 57 25C55.35 25.33 53.7 25.66 52 26C50.6645 19.5651 50.6645 19.5651 52.1875 17C54 16 54 16 56.1875 16.3125Z" fill="#BF963E"/>
<path d="M80 104C81.32 104 82.64 104 84 104C80.5064 111.28 76.8999 116.266 69.2461 119.309C64.4776 120.776 60.1785 121.113 55.1875 121.062C54.0261 121.053 52.8646 121.044 51.668 121.035C50.7875 121.024 49.9071 121.012 49 121C49 120.34 49 119.68 49 119C50.0171 118.905 50.0171 118.905 51.0547 118.809C57.9717 117.898 62.2792 115.928 67.7109 111.559C70.1973 109.866 72.0794 109.527 75 109C75.33 108.34 75.66 107.68 76 107C77.32 107 78.64 107 80 107C80 106.01 80 105.02 80 104Z" fill="#BB9640"/>
<path d="M375 92C375.33 92 375.66 92 376 92C376.159 92.5801 376.317 93.1602 376.48 93.7578C378.128 99.2755 379.972 102.869 384 107C386.889 108.444 388.796 108.377 392 108C395.207 105.376 397.432 102.848 399 99C399.99 99 400.98 99 402 99C402.49 101.693 402.346 103.433 400.91 105.785C396.501 111.293 391.733 113.701 384.75 114.75C381 115 381 115 378 114C376.907 110.722 377.164 110.159 378 107C378.038 105.334 378.046 103.666 378 102C377.34 102 376.68 102 376 102C374.393 98.7855 374.942 95.5639 375 92Z" fill="#BF953C"/>
<path d="M278 111C277.965 112.589 277.965 112.589 277.93 114.211C277.911 115.599 277.893 116.987 277.875 118.375C277.858 119.074 277.842 119.772 277.824 120.492C277.807 122.329 277.897 124.166 278 126C278.66 126.66 279.32 127.32 280 128C279.625 131.125 279.625 131.125 279 134C276.03 133.67 273.06 133.34 270 133C269.973 130.625 269.953 128.25 269.938 125.875C269.929 125.21 269.921 124.545 269.912 123.859C269.892 119.801 270.045 115.953 271 112C273.463 110.769 275.28 110.928 278 111Z" fill="#F2994A"/>
<path d="M288 123C292.62 123 297.24 123 302 123C302 127.29 302 131.58 302 136C297.38 136 292.76 136 288 136C287.67 135.34 287.34 134.68 287 134C287.33 133.34 287.66 132.68 288 132C288.043 130 288.041 128 288 126C288 125.01 288 124.02 288 123ZM295 125C294.34 125.66 293.68 126.32 293 127C294.32 127.33 295.64 127.66 297 128C296.67 127.01 296.34 126.02 296 125C295.67 125 295.34 125 295 125ZM294 131C294.33 131.99 294.66 132.98 295 134C295.66 133.01 296.32 132.02 297 131C296.01 131 295.02 131 294 131Z" fill="#C9A54F"/>
<path d="M64 45C71.1489 46.0213 74.8168 49.4223 79 55C80.2832 58.8495 80.0664 61.9474 80 66C75.707 65.523 73.7147 63.202 71 60C69.9847 57.6733 68.9851 55.3397 68 53C66.4473 50.8609 64.7751 48.9669 63 47C63.33 46.34 63.66 45.68 64 45Z" fill="#E8B23D"/>
<path d="M179 123C181.31 123 183.62 123 186 123C185.67 124.32 185.34 125.64 185 127C185.66 126.67 186.32 126.34 187 126C187 125.01 187 124.02 187 123C188.98 123 190.96 123 193 123C193 127.29 193 131.58 193 136C191.35 136 189.7 136 188 136C187.67 135.01 187.34 134.02 187 133C187.33 132.34 187.66 131.68 188 131C187.01 131 186.02 131 185 131C185.33 132.65 185.66 134.3 186 136C184.02 136 182.04 136 180 136C178.766 132.299 179.454 129.825 180 126C179.67 125.01 179.34 124.02 179 123Z" fill="#DAA747"/>
<path d="M247 123C248.65 123 250.3 123 252 123C252 123.66 252 124.32 252 125C252.66 125 253.32 125 254 125C254 124.34 254 123.68 254 123C256.31 123 258.62 123 261 123C260.67 126.96 260.34 130.92 260 135C259.01 135.33 258.02 135.66 257 136C256.01 135.01 255.02 134.02 254 133C253.01 134.485 253.01 134.485 252 136C250.35 136 248.7 136 247 136C247 131.71 247 127.42 247 123Z" fill="#E3B749"/>
<path d="M253.562 68.5C254.037 68.995 254.511 69.49 255 70C253.35 70.33 251.7 70.66 250 71C250.338 71.5517 250.675 72.1034 251.023 72.6719C252.211 75.503 252.023 77.227 251.625 80.25C251.459 81.588 251.459 81.588 251.289 82.9531C251.146 83.9663 251.146 83.9663 251 85C250.67 85 250.34 85 250 85C249.34 80.38 248.68 75.76 248 71C242.323 72.3145 242.323 72.3145 240.539 74.7266C240.237 75.353 239.936 75.9795 239.625 76.625C238.821 78.2956 238.821 78.2956 238 80C235.085 78.926 233.222 78.2219 231 76C231 74.125 231 74.125 232 72C237.996 67.3364 246.483 64.3562 253.562 68.5Z" fill="#CEAA51"/>
<path d="M94 48C93.67 49.32 93.34 50.64 93 52C92.34 52 91.68 52 91 52C91 60.25 91 68.5 91 77C91.99 77 92.98 77 94 77C94 74.36 94 71.72 94 69C94.66 69 95.32 69 96 69C96.7995 72.287 97.0966 73.7102 96 77C97.32 76.67 98.64 76.34 100 76C98.625 78 98.625 78 97 80C96.34 80 95.68 80 95 80C94.7525 80.6187 94.505 81.2375 94.25 81.875C93 84 93 84 89 86C89 75.11 89 64.22 89 53C88.01 52.67 87.02 52.34 86 52C86 51.34 86 50.68 86 50C91.75 48 91.75 48 94 48Z" fill="#A88237"/>
<path d="M332 101C333.32 101.66 334.64 102.32 336 103C336 103.66 336 104.32 336 105C340.982 106.916 345.727 107.555 351 108C349.75 109.5 349.75 109.5 348 111C346.68 111 345.36 111 344 111C344 111.66 344 112.32 344 113C339.169 114.61 333.742 114.201 329.047 112.145C326.178 110.327 325.089 109.267 324 106C324.928 106.206 325.856 106.412 326.812 106.625C330.152 107.367 330.152 107.367 333 105C332.67 103.68 332.34 102.36 332 101Z" fill="#DCA932"/>
<path d="M55 45C53.9348 47.4854 52.9927 49.0069 51 50.875C47.8296 54.2436 47.0855 57.5752 46.8125 62.125C46.9721 64.5727 47.2814 66.6645 48 69C46.68 68.34 45.36 67.68 44 67C44 62.71 44 58.42 44 54C43.34 53.67 42.68 53.34 42 53C41.34 52.67 40.68 52.34 40 52C39.67 52.66 39.34 53.32 39 54C36.9375 54.625 36.9375 54.625 35 55C36.0487 52.3781 36.6493 51.2063 39.125 49.75C39.7437 49.5025 40.3625 49.255 41 49C41 48.34 41 47.68 41 47C45.9274 45.0291 49.7802 44.82 55 45Z" fill="#CBA13A"/>
<path d="M319.438 122.75C323 123 323 123 326 125C326.938 128.375 326.938 128.375 327 132C325.438 134.438 325.438 134.438 323 136C320.062 136.562 320.062 136.562 317 136C314.125 133.5 314.125 133.5 312 131C314.399 123.116 314.399 123.116 319.438 122.75ZM319 126C318.34 126.66 317.68 127.32 317 128C317.319 130.108 317.319 130.108 318 132C318.99 132 319.98 132 321 132C321.33 130.68 321.66 129.36 322 128C321.01 127.34 320.02 126.68 319 126Z" fill="#B29346"/>
<path d="M332 70C331.691 70.9694 331.381 71.9388 331.062 72.9375C329.82 77.2366 329.383 81.5534 329 86C328.01 86 327.02 86 326 86C326 86.66 326 87.32 326 88C324.35 88 322.7 88 321 88C319.42 84.8402 319.656 82.4994 320 79C321.759 75.4951 323.872 72.7633 327.125 70.5625C329 70 329 70 332 70Z" fill="#E3AF3B"/>
<path d="M34 65C39.1533 64.6969 41.7629 65.1064 46 68C47.4286 68.7464 48.8668 69.4748 50.3125 70.1875C51.0099 70.5317 51.7073 70.8759 52.4258 71.2305C53.205 71.6114 53.205 71.6114 54 72C52.68 73.65 51.36 75.3 50 77C39.0842 75.8912 39.0842 75.8912 35.8125 72.125C34 69 34 69 34 65Z" fill="#DAA737"/>
<path d="M337 123C339.31 123 341.62 123 344 123C343.67 125.97 343.34 128.94 343 132C343.66 132 344.32 132 345 132C345.66 130.02 346.32 128.04 347 126C346.34 126 345.68 126 345 126C345 125.01 345 124.02 345 123C346.98 123 348.96 123 351 123C350.913 124.605 350.804 126.209 350.688 127.812C350.629 128.706 350.571 129.599 350.512 130.52C349.927 133.352 349.365 134.361 347 136C340.667 135.667 340.667 135.667 338 133C337.586 130.617 337.586 130.617 337.375 127.875C337.3 126.965 337.225 126.055 337.148 125.117C337.099 124.419 337.05 123.72 337 123Z" fill="#896B37"/>
<path d="M233 123C235 124.125 235 124.125 236 126C236.541 129.63 236.464 131.322 234.375 134.375C231.288 136.487 229.672 136.612 226 136C223.625 134.375 223.625 134.375 222 132C221.551 128.856 221.496 126.945 223 124.125C226.218 122.315 229.402 122.46 233 123ZM228 126C226.892 127.883 226.892 127.883 226 130C226.33 130.66 226.66 131.32 227 132C228.32 132 229.64 132 231 132C231 130.02 231 128.04 231 126C230.01 126 229.02 126 228 126Z" fill="#B69042"/>
<path d="M268 93C268.33 93 268.66 93 269 93C269.025 93.9787 269.05 94.9574 269.076 95.9658C269.17 99.6038 269.27 103.242 269.372 106.879C269.416 108.453 269.457 110.026 269.497 111.599C269.555 113.863 269.619 116.127 269.684 118.391C269.7 119.092 269.717 119.793 269.734 120.515C269.815 123.189 269.921 125.689 270.582 128.288C271 130 271 130 270 133C272.97 133.33 275.94 133.66 279 134C279 132.02 279 130.04 279 128C279.33 129.32 279.66 130.64 280 132C281.65 132.33 283.3 132.66 285 133C285 133.99 285 134.98 285 136C277.41 136 269.82 136 262 136C262 135.01 262 134.02 262 133C263.65 132.34 265.3 131.68 267 131C267.33 118.46 267.66 105.92 268 93Z" fill="#B78F39"/>
<path d="M391.125 68.9727C392.792 69.9105 394.403 70.9468 396 72C393 73 393 73 390 72C390.516 72.8044 391.031 73.6088 391.562 74.4375C393.402 78.9967 392.874 82.2634 392 87C391.34 86.67 390.68 86.34 390 86C389.621 84.0742 389.621 84.0742 389.438 81.6875C389.194 78.6822 388.805 75.9088 388 73C385.796 72.1225 385.796 72.1225 383 72C379.931 73.7454 377.493 75.5065 375 78C375.093 76.8244 375.093 76.8244 375.188 75.625C375.126 74.7588 375.064 73.8925 375 73C374.01 72.34 373.02 71.68 372 71C378.474 66.8895 383.951 65.6892 391.125 68.9727Z" fill="#CB9B44"/>
<path d="M58 82C66.8696 82.7391 66.8696 82.7391 70 86C70 86.66 70 87.32 70 88C74.3273 90.2292 77.284 89.9247 82 89C82.33 88.01 82.66 87.02 83 86C85 88 85 88 85.5625 90.3125C84.7818 94.0423 82.8755 95.0031 79.8242 97.082C78 98 78 98 75 98C74.9175 97.2163 74.835 96.4325 74.75 95.625C74.3016 92.9176 74.3016 92.9176 72.3125 92C71.5494 91.67 70.7862 91.34 70 91C68.5276 89.7517 67.0557 88.5027 65.5938 87.2422C63.2552 85.4195 60.6908 84.2173 58 83C58 82.67 58 82.34 58 82Z" fill="#E6B13F"/>
<path d="M140 123C140.99 123 141.98 123 143 123C146 128.625 146 128.625 146 132C146.66 132 147.32 132 148 132C148 133.32 148 134.64 148 136C143.71 136 139.42 136 135 136C135 131.853 135.478 130.688 137.5 127.25C137.964 126.451 138.428 125.652 138.906 124.828C139.267 124.225 139.628 123.622 140 123Z" fill="#8F773D"/>
<path d="M383 123C385.97 123 388.94 123 392 123C392 124.32 392 125.64 392 127C391.34 127 390.68 127 390 127C390.33 127.99 390.66 128.98 391 130C391.66 130.33 392.32 130.66 393 131C392.67 132.65 392.34 134.3 392 136C389.03 136 386.06 136 383 136C383 131.71 383 127.42 383 123Z" fill="#9F7E3F"/>
<path d="M163.563 122.938C164.697 122.958 165.831 122.979 167 123C167.693 126.724 168.111 130.211 168 134C167.34 134 166.68 134 166 134C166 134.66 166 135.32 166 136C164.02 136 162.04 136 160 136C159.018 131.947 158.84 128.165 159 124C160 123 160 123 163.563 122.938Z" fill="#E1BA55"/>
<path d="M343 67C343.99 67.66 344.98 68.32 346 69C345.01 69.33 344.02 69.66 343 70C342.67 70.66 342.34 71.32 342 72C341.01 71.67 340.02 71.34 339 71C333.871 75.2739 332.252 79.7451 330 86C335.28 86 340.56 86 346 86C346 86.33 346 86.66 346 87C340.39 87 334.78 87 329 87C328.725 80.3204 328.905 75.9318 332 70C331.34 69.67 330.68 69.34 330 69C334.497 67.2452 338.174 66.6358 343 67Z" fill="#A67F31"/>
<path d="M33 97C33.66 97.33 34.32 97.66 35 98C35.3789 99.8555 35.3789 99.8555 35.5625 102.188C35.8884 105.831 36.3533 109.397 37 113C35.25 113.75 35.25 113.75 33 114C30.7666 112.149 29.2981 110.596 28 108C27.9301 106.293 27.9156 104.583 27.9375 102.875C27.9466 101.965 27.9556 101.055 27.9649 100.117C27.9765 99.4185 27.9881 98.7198 28 98C28.33 98.66 28.66 99.32 29 100C30.32 99.01 31.64 98.02 33 97Z" fill="#D0A239"/>
<path d="M363 123C365.31 123 367.62 123 370 123C370.927 127.324 371.004 130.683 370 135C369 136 369 136 365.938 136.062C364.968 136.042 363.999 136.021 363 136C362.162 131.345 361.984 127.629 363 123Z" fill="#B89F50"/>
<path d="M231 90C231.66 90.33 232.32 90.66 233 91C232.519 91.3571 232.038 91.7141 231.543 92.082C229.316 94.8505 229.486 97.1816 229.312 100.688C229.214 102.457 229.214 102.457 229.113 104.262C229.057 105.617 229.057 105.617 229 107C232.3 107 235.6 107 239 107C239.33 105.68 239.66 104.36 240 103C240.33 104.32 240.66 105.64 241 107C241.99 106.67 242.98 106.34 244 106C244 106.66 244 107.32 244 108C240.812 110.125 238.735 110.502 235 111C235.267 112.985 235.267 112.985 236 115C236.99 115.33 237.98 115.66 239 116C237.68 116 236.36 116 235 116C234.67 115.34 234.34 114.68 234 114C233.01 113.34 232.02 112.68 231 112C227.652 108.652 226.3 105.835 225.883 101.07C226.08 97.5944 227.402 95.0675 229 92C229.66 92 230.32 92 231 92C231 91.34 231 90.68 231 90Z" fill="#9F7D32"/>
<path d="M166 73C166.66 73.99 167.32 74.98 168 76C167.01 76.495 167.01 76.495 166 77C165.67 82.61 165.34 88.22 165 94C166.98 94 168.96 94 171 94C171 95.32 171 96.64 171 98C171.66 98.66 172.32 99.32 173 100C171.02 100.99 171.02 100.99 169 102C168.67 100.68 168.34 99.36 168 98C167.01 98.33 166.02 98.66 165 99C163.049 97.3882 162.071 96.5699 161.751 94.0071C161.838 92.8995 161.838 92.8995 161.926 91.7695C161.981 90.9671 162.035 90.1646 162.092 89.3379C162.165 88.5045 162.237 87.6711 162.312 86.8125C162.374 85.9675 162.435 85.1225 162.498 84.252C162.651 82.1669 162.824 80.0832 163 78C161.68 77.67 160.36 77.34 159 77C159 76.34 159 75.68 159 75C161.31 74.34 163.62 73.68 166 73Z" fill="#BF9541"/>
<path d="M115 123C118.3 123 121.6 123 125 123C125 124.32 125 125.64 125 127C124.34 127 123.68 127 123 127C123.062 128.114 123.062 128.114 123.125 129.25C122.996 132.088 122.429 133.588 121 136C119.02 136 117.04 136 115 136C115 131.71 115 127.42 115 123Z" fill="#B38E48"/>
<path d="M221 80C221.99 80 222.98 80 224 80C224 90.23 224 100.46 224 111C223.67 110.34 223.34 109.68 223 109C222.01 108.67 221.02 108.34 220 108C220.33 98.76 220.66 89.52 221 80Z" fill="#B79035"/>
<path d="M88 91C88.33 91.99 88.66 92.98 89 94C87.7852 96.2617 87.7852 96.2617 86.0625 98.6875C85.2137 99.8999 85.2137 99.8999 84.3477 101.137C83.9029 101.752 83.4582 102.366 83 103C83.99 103 84.98 103 86 103C86.33 103.99 86.66 104.98 87 106C84.69 108.31 82.38 110.62 80 113C79.67 112.01 79.34 111.02 79 110C80.4045 107.736 82.1968 105.979 84 104C82.68 104 81.36 104 80 104C80 104.99 80 105.98 80 107C78.68 107 77.36 107 76 107C75.67 107.99 75.34 108.98 75 110C73.68 109.67 72.36 109.34 71 109C72.2897 107.624 73.6269 106.292 75 105C75.66 105 76.32 105 77 105C77.33 104.01 77.66 103.02 78 102C78.66 102 79.32 102 80 102C80.2681 101.423 80.5362 100.845 80.8125 100.25C82.0293 97.9445 83.3033 95.9794 85 94C85.66 94 86.32 94 87 94C87.33 93.01 87.66 92.02 88 91Z" fill="#B68E38"/>
<path d="M145 68C145.66 68.33 146.32 68.66 147 69C147.33 81.87 147.66 94.74 148 108C147.34 108 146.68 108 146 108C144.812 104.267 144.886 100.725 144.902 96.8281C144.904 96.1457 144.905 95.4633 144.907 94.7602C144.912 92.5901 144.925 90.4201 144.938 88.25C144.943 86.7747 144.947 85.2995 144.951 83.8242C144.962 80.2161 144.979 76.6081 145 73C143.35 73 141.7 73 140 73C141.65 71.35 143.3 69.7 145 68Z" fill="#F2994A"/>
<path d="M363 93C363 93.66 363 94.32 363 95C362.34 95 361.68 95 361 95C360.912 95.7193 360.825 96.4386 360.734 97.1797C359.854 100.561 358.449 102.422 356.25 105.125C355.237 106.397 355.237 106.397 354.203 107.695C351.939 110.064 349.932 111.553 347 113C346.01 113 345.02 113 344 113C344 112.34 344 111.68 344 111C345.65 110.34 347.3 109.68 349 109C349 108.01 349 107.02 349 106C350.242 104.352 350.242 104.352 351.875 102.625C354.38 99.8556 355.662 97.4982 357 94C360 93 360 93 363 93Z" fill="#C99F44"/>
<path d="M373 78C373.66 78.33 374.32 78.66 375 79C375 81.64 375 84.28 375 87C375.557 86.8144 376.114 86.6287 376.688 86.4375C379.399 85.9245 381.344 86.3359 384 87C384 88.32 384 89.64 384 91C389.445 91.495 389.445 91.495 395 92C395 92.33 395 92.66 395 93C380.951 93.3803 380.951 93.3803 375 91C374.34 90.34 373.68 89.68 373 89C373.375 85.375 373.375 85.375 374 82C373.34 82 372.68 82 372 82C371.67 82.99 371.34 83.98 371 85C370.34 84.67 369.68 84.34 369 84C370.32 82.02 371.64 80.04 373 78Z" fill="#A68032"/>
<path d="M350 70C352.157 71.5378 354.031 73.214 356 75C355.67 75.66 355.34 76.32 355 77C352.438 77.625 352.438 77.625 350 78C349.876 79.1343 349.752 80.2687 349.625 81.4375C349.419 82.6131 349.213 83.7887 349 85C348.34 85.33 347.68 85.66 347 86C346.897 84.7831 346.794 83.5662 346.688 82.3125C346.236 78.5531 345.091 76.1817 343 73C343 72.01 343 71.02 343 70C345.815 68.5925 347.008 69.0479 350 70Z" fill="#B3893D"/>
<path d="M80 104C81.32 104 82.64 104 84 104C81.8637 108.412 79.7229 112.722 76 116C72.8871 116.67 70.13 116.501 67 116C70.4652 110.183 70.4652 110.183 73.1875 109.25C73.7856 109.167 74.3838 109.085 75 109C75.33 108.34 75.66 107.68 76 107C77.32 107 78.64 107 80 107C80 106.01 80 105.02 80 104Z" fill="#E6B12D"/>
<path d="M128 112C130.31 112.66 132.62 113.32 135 114C134.34 114.66 133.68 115.32 133 116C130.875 115.625 130.875 115.625 129 115C129 115.66 129 116.32 129 117C130.32 117.33 131.64 117.66 133 118C132.67 118.99 132.34 119.98 132 121C123.856 121.626 123.856 121.626 120.438 119.125C119 117 119 117 119 115C122.076 114.707 122.076 114.707 125.152 114.414C125.762 114.277 126.372 114.141 127 114C127.33 113.34 127.66 112.68 128 112Z" fill="#E7AD2A"/>
<path d="M48 38C48.33 38.66 48.66 39.32 49 40C49.9642 39.9768 50.9284 39.9536 51.9219 39.9297C53.8168 39.9026 53.8168 39.9026 55.75 39.875C57.003 39.8518 58.2559 39.8286 59.5469 39.8047C62.7282 39.9846 64.3652 40.31 67 42C66.34 42.66 65.68 43.32 65 44C62.6172 43.9766 62.6172 43.9766 59.875 43.625C58.9649 43.5141 58.0548 43.4033 57.1172 43.2891C56.0692 43.146 56.0692 43.146 55 43C55.6187 43.2887 56.2375 43.5775 56.875 43.875C59 45 59 45 61 47C59.02 47 57.04 47 55 47C55 46.34 55 45.68 55 45C53.35 45 51.7 45 50 45C50 44.34 50 43.68 50 43C47.69 43.33 45.38 43.66 43 44C43.99 43.67 44.98 43.34 46 43C46 42.34 46 41.68 46 41C46.66 41 47.32 41 48 41C48 40.01 48 39.02 48 38Z" fill="#AE8837"/>
<path d="M91 90C91.66 90.33 92.32 90.66 93 91C93 93.64 93 96.28 93 99C92.01 99.33 91.02 99.66 90 100C88.7813 102.504 88.7813 102.504 88 105C87.34 105 86.68 105 86 105C86 104.34 86 103.68 86 103C85.01 103 84.02 103 83 103C87 92 87 92 91 90Z" fill="#DCAB3B"/>
<path d="M308 74C309.65 75.65 311.3 77.3 313 79C312.01 79 311.02 79 310 79C310 80.32 310 81.64 310 83C310.66 82.67 311.32 82.34 312 82C311.67 83.65 311.34 85.3 311 87C311.66 87 312.32 87 313 87C313.124 88.1137 313.248 89.2275 313.375 90.375C313.647 94.031 313.647 94.031 316 96C315.34 96.99 314.68 97.98 314 99C312.142 95.865 311.799 93.6253 312 90C311.103 89.5669 311.103 89.5669 310.188 89.125C308 88 308 88 305 86C305.66 85.34 306.32 84.68 307 84C306.34 83.34 305.68 82.68 305 82C305 81.01 305 80.02 305 79C305.99 79 306.98 79 308 79C308 77.35 308 75.7 308 74Z" fill="#C69E3E"/>
<path d="M53 76C54.7659 76.2537 54.7659 76.2537 57.0352 76.7773C57.844 76.961 58.6529 77.1447 59.4863 77.334C60.3365 77.5331 61.1866 77.7323 62.0625 77.9375C63.3435 78.2304 63.3435 78.2304 64.6504 78.5293C66.7682 79.0144 68.8846 79.5048 71 80C71.33 81.98 71.66 83.96 72 86C65.375 85.25 65.375 85.25 62 83C60.845 82.5256 59.69 82.0513 58.5 81.5625C55.5433 80.2425 53.984 79.4508 52 77C52.33 76.67 52.66 76.34 53 76Z" fill="#E7B030"/>
<path d="M192 99C192.289 99.5981 192.577 100.196 192.875 100.812C194.047 103.193 194.047 103.193 196 106C196 107.98 196 109.96 196 112C192.04 112 188.08 112 184 112C184.66 110.68 185.32 109.36 186 108C187.32 108 188.64 108 190 108C189.67 107.01 189.34 106.02 189 105C189.66 104.34 190.32 103.68 191 103C191.643 100.931 191.643 100.931 192 99Z" fill="#E8AF30"/>
<path d="M187 123C188.98 123 190.96 123 193 123C193 127.29 193 131.58 193 136C191.35 136 189.7 136 188 136C187.67 135.01 187.34 134.02 187 133C187.33 132.34 187.66 131.68 188 131C187.01 131 186.02 131 185 131C185 130.01 185 129.02 185 128C186.32 128 187.64 128 189 128C189 127.01 189 126.02 189 125C188.34 125 187.68 125 187 125C187 124.34 187 123.68 187 123Z" fill="#C5A04B"/>
<path d="M205 123C206.98 123 208.96 123 211 123C211 127.29 211 131.58 211 136C209.02 136 207.04 136 205 136C205 131.71 205 127.42 205 123Z" fill="#896E36"/>
<path d="M307 94C307.99 94.66 308.98 95.32 310 96C310.188 98.625 310.188 98.625 310 101C309.01 101.495 309.01 101.495 308 102C308 103.32 308 104.64 308 106C307.01 106.33 306.02 106.66 305 107C304.01 108.485 304.01 108.485 303 110C301.35 109.67 299.7 109.34 298 109C298.33 108.34 298.66 107.68 299 107C299.99 107 300.98 107 302 107C302.33 106.01 302.66 105.02 303 104C303.99 103.67 304.98 103.34 306 103C305.608 102.443 305.216 101.886 304.812 101.312C304.544 100.549 304.276 99.7862 304 99C305.375 96.25 305.375 96.25 307 94Z" fill="#E7AF2B"/>
<path d="M105 73C105.66 73.66 106.32 74.32 107 75C109.211 75.2425 109.211 75.2425 111.625 75.125C112.442 75.107 113.26 75.0889 114.102 75.0703C114.728 75.0471 115.355 75.0239 116 75C115.403 75.29 114.806 75.5801 114.191 75.8789C110.021 78.0123 106.147 80.5031 103 84C102.67 83.34 102.34 82.68 102 82C100.35 82 98.7 82 97 82C97.9573 80.8741 98.9159 79.7493 99.875 78.625C100.409 77.9985 100.942 77.372 101.492 76.7266C102.614 75.4416 103.794 74.2063 105 73Z" fill="#BA9036"/>
<path d="M57 25C57.33 27.31 57.66 29.62 58 32C57.3813 32.2887 56.7625 32.5775 56.125 32.875C53.8667 33.9372 53.8667 33.9372 52 36C52 35.34 52 34.68 52 34C50.68 34.33 49.36 34.66 48 35C47.67 34.34 47.34 33.68 47 33C47.66 33 48.32 33 49 33C49.66 30.69 50.32 28.38 51 26C53.0755 25.4465 54.8437 25 57 25Z" fill="#C79930"/>
<path d="M225 113C227.97 113 230.94 113 234 113C234.66 114.65 235.32 116.3 236 118C233.475 119.262 231.688 119.099 228.875 119.062C227.965 119.053 227.055 119.044 226.117 119.035C225.419 119.024 224.72 119.012 224 119C224.33 117.02 224.66 115.04 225 113Z" fill="#E9B439"/>
<path d="M357 78C359.313 81.4692 359.425 82.9221 359 87C357.625 88.9939 356.649 89.7721 354.375 90.5703C351.003 91.1803 347.662 91.1044 344.25 91.0625C343.553 91.058 342.855 91.0535 342.137 91.0488C340.424 91.0371 338.712 91.0192 337 91C337 90.67 337 90.34 337 90C339.64 90 342.28 90 345 90C345 89.34 345 88.68 345 88C349.05 86.6498 351.792 87.3792 356 88C356.33 84.7 356.66 81.4 357 78Z" fill="#F2994A"/>
<path d="M250 106C248.514 110.459 245.005 112.86 241 115C238.062 115.312 238.062 115.312 236 115C235.67 113.68 235.34 112.36 235 111C236.935 110.16 238.873 109.328 240.812 108.5C241.891 108.036 242.97 107.572 244.082 107.094C247 106 247 106 250 106Z" fill="#D8AB42"/>
<path d="M240 69C239.34 72.63 238.68 76.26 238 80C233 78 233 78 231 76C231.18 73.2142 231.796 72.1972 233.812 70.25C236 69 236 69 240 69Z" fill="#D5A949"/>
<path d="M395 78C397.357 78.3142 398.81 78.8645 400.75 80.25C402.413 82.5777 402.227 84.2053 402 87C400.02 87.33 398.04 87.66 396 88C394.149 84.877 393.706 82.6206 394 79C394.33 78.67 394.66 78.34 395 78Z" fill="#E9AE2B"/>
<path d="M337 123C339.31 123 341.62 123 344 123C344 123.66 344 124.32 344 125C343.34 125 342.68 125 342 125C342 127.64 342 130.28 342 133C343.32 133 344.64 133 346 133C346 133.66 346 134.32 346 135C343.125 135.125 343.125 135.125 340 135C337.505 132.505 337.641 131.327 337.375 127.875C337.3 126.965 337.225 126.055 337.148 125.117C337.099 124.419 337.05 123.72 337 123Z" fill="#B19144"/>
<path d="M74 83C76.31 83.33 78.62 83.66 81 84C81.66 85.98 82.32 87.96 83 90C77.6269 90.9689 77.6269 90.9689 75 91C73 89.5625 73 89.5625 72 88C72.66 87.01 73.32 86.02 74 85C74 84.34 74 83.68 74 83Z" fill="#E7B131"/>
<path d="M140 123C140.99 123 141.98 123 143 123C145.679 127.019 145.156 129.242 145 134C142.562 133.625 142.562 133.625 140 133C138.509 130.018 138.881 127.284 139 124C139.33 123.67 139.66 123.34 140 123Z" fill="#D0A948"/>
<path d="M300.562 69C301.769 69.495 301.769 69.495 303 70C303 70.66 303 71.32 303 72C300.396 72.054 297.792 72.0937 295.188 72.125C294.45 72.1418 293.712 72.1586 292.951 72.1758C289.088 72.2108 287.291 72.194 284 70C289.371 66.9376 294.733 67.3636 300.562 69Z" fill="#C29A3B"/>
<path d="M31 94C33.567 94.3949 35.6712 94.8356 38 96C37.67 99.63 37.34 103.26 37 107C36.34 107 35.68 107 35 107C34.67 104.03 34.34 101.06 34 98C32.35 98.66 30.7 99.32 29 100C29.875 95.125 29.875 95.125 31 94Z" fill="#C49D40"/>
<path d="M94 69C94.66 69 95.32 69 96 69C96.7995 72.287 97.0966 73.7102 96 77C97.32 76.67 98.64 76.34 100 76C98.625 78 98.625 78 97 80C96.34 80 95.68 80 95 80C94.7525 80.6187 94.505 81.2375 94.25 81.875C92.7937 84.3507 91.6219 84.9513 89 86C89 84.35 89 82.7 89 81C90.32 81.33 91.64 81.66 93 82C93 81.01 93 80.02 93 79C92.34 79 91.68 79 91 79C91 78.34 91 77.68 91 77C91.99 77 92.98 77 94 77C94 74.36 94 71.72 94 69Z" fill="#D5A037"/>
<path d="M70 21C71.6754 21.286 73.3439 21.6178 75 22C75 23.65 75 25.3 75 27C74.34 27 73.68 27 73 27C72.67 28.65 72.34 30.3 72 32C71.34 32 70.68 32 70 32C70 31.01 70 30.02 70 29C69.01 28.67 68.02 28.34 67 28C68.875 22.125 68.875 22.125 70 21Z" fill="#AB873E"/>
<path d="M325 77C325.99 77 326.98 77 328 77C328 79.64 328 82.28 328 85C327.01 85.495 327.01 85.495 326 86C326 86.66 326 87.32 326 88C324.35 88 322.7 88 321 88C320.67 86.02 320.34 84.04 320 82C321.65 81.67 323.3 81.34 325 81C325 79.68 325 78.36 325 77Z" fill="#E9B031"/>
<path d="M33 97C33.66 97.33 34.32 97.66 35 98C35.3789 99.8555 35.3789 99.8555 35.5625 102.188C35.8884 105.831 36.3533 109.397 37 113C35.68 112.67 34.36 112.34 33 112C32.6114 109.877 32.2395 107.752 31.875 105.625C31.6662 104.442 31.4573 103.258 31.2422 102.039C31.1623 101.036 31.0823 100.033 31 99C31.66 98.34 32.32 97.68 33 97Z" fill="#E9AE2E"/>
<path d="M166 128C166.66 128.33 167.32 128.66 168 129C168 130.65 168 132.3 168 134C167.34 134 166.68 134 166 134C166 134.66 166 135.32 166 136C164.02 136 162.04 136 160 136C159.67 134.35 159.34 132.7 159 131C161.304 129.933 163.64 128.936 166 128Z" fill="#B28F40"/>
<path d="M288 123C292.62 123 297.24 123 302 123C301.67 125.64 301.34 128.28 301 131C300.67 130.01 300.34 129.02 300 128C298.68 128.99 297.36 129.98 296 131C295.01 129.68 294.02 128.36 293 127C293.99 126.67 294.98 126.34 296 126C295.34 126 294.68 126 294 126C294 125.34 294 124.68 294 124C292.02 124 290.04 124 288 124C288 123.67 288 123.34 288 123Z" fill="#977C3E"/>
<path d="M212 106C213.32 106.33 214.64 106.66 216 107C216 110.63 216 114.26 216 118C218.97 118.495 218.97 118.495 222 119C222 119.66 222 120.32 222 121C222.66 121.33 223.32 121.66 224 122C220.03 121.723 218.276 121.233 215.187 118.625C211.716 114.459 211.901 111.266 212 106Z" fill="#B7933D"/>
<path d="M65 34C66.32 34 67.64 34 69 34C69 36.97 69 39.94 69 43C67.35 43.66 65.7 44.32 64 45C64 45.66 64 46.32 64 47C61.36 46.67 58.72 46.34 56 46C59.1109 43.2348 60.8829 42.7775 65 43C65.33 42.67 65.66 42.34 66 42C65.8982 40.0858 65.8982 40.0858 65.5625 37.9375C65.3769 36.6381 65.1912 35.3388 65 34Z" fill="#D7A733"/>
<path d="M250 85C250 85.66 250 86.32 250 87C248.369 88.0577 246.697 89.0527 245 90C244.01 90.66 243.02 91.32 242 92C242.33 91.01 242.66 90.02 243 89C239.7 89.33 236.4 89.66 233 90C234.462 87.0757 236.775 86.6585 239.723 85.5976C243.235 84.6759 246.385 84.8063 250 85Z" fill="#A37F34"/>
<path d="M68 79C73.7166 78.5426 76.4865 79.4772 81 83C77.9897 83.9342 77.1335 84.0445 74 83C74.33 83.99 74.66 84.98 75 86C74.34 86.66 73.68 87.32 73 88C72.01 88 71.02 88 70 88C70.33 85.36 70.66 82.72 71 80C70.01 79.67 69.02 79.34 68 79Z" fill="#D3A339"/>
<path d="M255 70C259.666 73.9292 261.21 77.1302 262 83C262.125 86.5 262.125 86.5 262 89C260.02 89.99 260.02 89.99 258 91C257.67 89.68 257.34 88.36 257 87C257.66 86.67 258.32 86.34 259 86C259 86.66 259 87.32 259 88C259.66 88 260.32 88 261 88C260.505 86.7831 260.01 85.5662 259.5 84.3125C258.275 81.0751 257.672 78.499 258 75C257.34 75 256.68 75 256 75C255.67 73.35 255.34 71.7 255 70Z" fill="#B7953A"/>
<path d="M287 124C289.31 124 291.62 124 294 124C294.144 124.784 294.289 125.567 294.438 126.375C294.878 128.964 294.878 128.964 296 131C295.01 131.33 294.02 131.66 293 132C292.67 132.66 292.34 133.32 292 134C291.01 133.67 290.02 133.34 289 133C288.856 131.886 288.711 130.773 288.562 129.625C288.216 126.179 288.216 126.179 287 124Z" fill="#DCAF58"/>
<path d="M271 80C273.31 80.66 275.62 81.32 278 82C278 82.66 278 83.32 278 84C273.508 86.9948 273.508 86.9948 271 88C268.062 87.25 268.062 87.25 266 86C266.66 85.67 267.32 85.34 268 85C268 84.34 268 83.68 268 83C268.66 83 269.32 83 270 83C270.33 82.01 270.66 81.02 271 80Z" fill="#A68333"/>
<path d="M101 43C101 53.89 101 64.78 101 76C100.67 76 100.34 76 100 76C100 66.43 100 56.86 100 47C98.02 47.33 96.04 47.66 94 48C98.75 43 98.75 43 101 43Z" fill="#BB9D59"/>
<path d="M184 106C184.66 106.99 185.32 107.98 186 109C185.01 110.485 185.01 110.485 184 112C187.96 112 191.92 112 196 112C196.33 110.68 196.66 109.36 197 108C197.33 108.99 197.66 109.98 198 111C198.99 111 199.98 111 201 111C201 111.66 201 112.32 201 113C193.74 113 186.48 113 179 113C179 112.34 179 111.68 179 111C180.32 111 181.64 111 183 111C183.33 109.35 183.66 107.7 184 106Z" fill="#B09248"/>
<path d="M399 99C399.99 99 400.98 99 402 99C402.375 101.062 402.375 101.062 402 104C400.208 106.536 398.158 108.772 396 111C395.67 110.34 395.34 109.68 395 109C394.01 108.67 393.02 108.34 392 108C392.784 107.257 393.567 106.515 394.375 105.75C396.565 103.456 397.827 101.878 399 99Z" fill="#8C733D"/>
<path d="M48 46C47.01 46.495 47.01 46.495 46 47C45.3444 49.5273 45.3444 49.5273 45 52C43.35 52 41.7 52 40 52C39.67 52.66 39.34 53.32 39 54C36.9375 54.625 36.9375 54.625 35 55C36.0487 52.3781 36.6493 51.2063 39.125 49.75C39.7437 49.5025 40.3625 49.255 41 49C41 48.34 41 47.68 41 47C43.4628 45.7686 45.2795 45.9284 48 46Z" fill="#B7913B"/>
<path d="M43 30C44.8041 32.7592 45.0127 33.8897 44.625 37.25C44.4187 38.1575 44.2125 39.065 44 40C44.66 40 45.32 40 46 40C46 40.99 46 41.98 46 43C44.68 43 43.36 43 42 43C41.636 41.565 41.2841 40.1268 40.9375 38.6875C40.7403 37.887 40.543 37.0865 40.3398 36.2617C40 34 40 34 41 31C41.66 30.67 42.32 30.34 43 30Z" fill="#CE9F3E"/>
<path d="M384 87C388.171 86.806 391.289 86.9857 395 89C395.33 89.99 395.66 90.98 396 92C392.04 91.67 388.08 91.34 384 91C384 89.68 384 88.36 384 87Z" fill="#DFAC39"/>
<path d="M40 75C50.3528 75.583 50.3528 75.583 55 79C56.3261 79.681 57.6569 80.3533 59 81C53.4193 82.8602 47.5146 79.7051 42.375 77.3125C41.5913 76.8794 40.8075 76.4462 40 76C40 75.67 40 75.34 40 75Z" fill="#BE903F"/>
<path d="M71 110C71.99 110 72.98 110 74 110C74 110.99 74 111.98 74 113C75.65 112.34 77.3 111.68 79 111C77.125 114.875 77.125 114.875 76 116C74.4807 116.072 72.9583 116.084 71.4375 116.062C70.6112 116.053 69.7849 116.044 68.9336 116.035C68.2955 116.024 67.6574 116.012 67 116C68.8125 113 68.8125 113 71 110Z" fill="#DCAE3C"/>
<path d="M364 97C364.33 97.99 364.66 98.98 365 100C365.66 100 366.32 100 367 100C370.057 102.393 371.527 105.464 373 109C372.67 109.99 372.34 110.98 372 112C367.223 107.198 364.144 103.93 364 97Z" fill="#B98A36"/>
<path d="M348 87C347.01 87.33 346.02 87.66 345 88C345 88.66 345 89.32 345 90C339.473 90.1939 335.244 89.7479 330 88C330 87.67 330 87.34 330 87C332.625 86.8057 335.249 86.6193 337.875 86.4375C338.995 86.3534 338.995 86.3534 340.137 86.2676C345.773 85.8867 345.773 85.8867 348 87Z" fill="#E2B85A"/>
<path d="M70 29C70.625 31.875 70.625 31.875 71 35C70.34 35.66 69.68 36.32 69 37C69 36.01 69 35.02 69 34C66.36 34.33 63.72 34.66 61 35C65.5 29 65.5 29 70 29Z" fill="#BC8E36"/>
<path d="M247 123C248.65 123 250.3 123 252 123C251.01 123.66 250.02 124.32 249 125C249.498 128.688 250.101 130.605 253 133C252.67 133.99 252.34 134.98 252 136C250.35 136 248.7 136 247 136C247 131.71 247 127.42 247 123Z" fill="#957A3E"/>
<path d="M379 87C380.65 87 382.3 87 384 87C384 88.32 384 89.64 384 91C387.63 91.33 391.26 91.66 395 92C395 92.33 395 92.66 395 93C392.897 93.108 390.792 93.1856 388.688 93.25C386.93 93.3196 386.93 93.3196 385.137 93.3906C382 93 382 93 380.082 91.1094C379 89 379 89 379 87Z" fill="#BA923E"/>
<path d="M372.563 71.9375C373.769 71.9684 373.769 71.9684 375 72C376.245 74.4909 375.777 75.4108 375 78C373.02 78.33 371.04 78.66 369 79C368.957 77.0005 368.959 74.9996 369 73C370 72 370 72 372.563 71.9375Z" fill="#CC9D32"/>
<path d="M64 117C64 117.66 64 118.32 64 119C63.34 119 62.68 119 62 119C62 119.66 62 120.32 62 121C57.71 121 53.42 121 49 121C49 120.34 49 119.68 49 119C50.7491 118.662 52.4994 118.33 54.25 118C55.2245 117.814 56.1991 117.629 57.2031 117.438C60 117 60 117 64 117Z" fill="#CCA955"/>
<path d="M58 82C66.8696 82.7391 66.8696 82.7391 70 86C70 86.66 70 87.32 70 88C70.99 88.33 71.98 88.66 73 89C72.67 90.32 72.34 91.64 72 93C71.4921 92.5295 70.9842 92.059 70.4609 91.5742C66.4901 87.9827 62.9359 85.0978 58 83C58 82.67 58 82.34 58 82Z" fill="#B18B37"/>
<path d="M179 123C181.31 123 183.62 123 186 123C185.67 124.32 185.34 125.64 185 127C186.32 126.34 187.64 125.68 189 125C189 125.99 189 126.98 189 128C184.25 129.125 184.25 129.125 182 128C181.67 128.66 181.34 129.32 181 130C180.34 127.69 179.68 125.38 179 123Z" fill="#917432"/>
<path d="M128 105C128.289 105.619 128.577 106.238 128.875 106.875C129.937 109.133 129.937 109.133 132 111C134.211 111.243 134.211 111.243 136.625 111.125C137.442 111.107 138.26 111.089 139.102 111.07C139.728 111.047 140.355 111.024 141 111C140.67 111.99 140.34 112.98 140 114C138.584 114.054 137.167 114.093 135.75 114.125C134.961 114.148 134.172 114.171 133.359 114.195C130.793 113.983 129.208 113.287 127 112C127.33 109.69 127.66 107.38 128 105Z" fill="#B78E3C"/>
<path d="M208 71C207.688 72.875 207.688 72.875 207 75C204 77 204 77 201 77C201 76.34 201 75.68 201 75C200.34 75 199.68 75 199 75C199 74.34 199 73.68 199 73C202.135 71.1422 204.375 70.7986 208 71Z" fill="#CE9841"/>
<path d="M343 67C343.99 67.66 344.98 68.32 346 69C345.01 69.33 344.02 69.66 343 70C342.67 70.66 342.34 71.32 342 72C339.03 71.01 336.06 70.02 333 69C332.67 69.66 332.34 70.32 332 71C331.34 70.34 330.68 69.68 330 69C334.497 67.2452 338.174 66.6358 343 67Z" fill="#9B7E3A"/>
<path d="M297 106C297.33 106.99 297.66 107.98 298 109C298.66 109 299.32 109 300 109C300 109.66 300 110.32 300 111C300.66 111.66 301.32 112.32 302 113C299.69 113.33 297.38 113.66 295 114C294.897 113.361 294.794 112.721 294.688 112.062C294.461 111.382 294.234 110.701 294 110C293.01 109.67 292.02 109.34 291 109C292.98 108.01 294.96 107.02 297 106Z" fill="#B38A2B"/>
<path d="M279 128C279.33 129.32 279.66 130.64 280 132C281.65 132.33 283.3 132.66 285 133C285 133.99 285 134.98 285 136C279.39 136 273.78 136 268 136C268 135.67 268 135.34 268 135C273.445 134.505 273.445 134.505 279 134C279 132.02 279 130.04 279 128Z" fill="#8B763C"/>
<path d="M152 108C152 108.66 152 109.32 152 110C152.66 110 153.32 110 154 110C154 110.99 154 111.98 154 113C146.25 113.125 146.25 113.125 144 112C144 111.34 144 110.68 144 110C146.906 108.743 148.796 108 152 108Z" fill="#E0AF40"/>
<path d="M275 86C275.99 86 276.98 86 278 86C278 87.65 278 89.3 278 91C273.569 93.0923 273.569 93.0923 270.688 92.625C270.131 92.4188 269.574 92.2125 269 92C271 90 273 88 275 86Z" fill="#BE9136"/>
<path d="M310 79C311.32 79 312.64 79 314 79C314 79.66 314 80.32 314 81C314.66 81 315.32 81 316 81C315.67 82.98 315.34 84.96 315 87C313.68 87 312.36 87 311 87C311 85.68 311 84.36 311 83C310.01 83.495 310.01 83.495 309 84C309.33 82.35 309.66 80.7 310 79Z" fill="#D4A532"/>
<path d="M174 68C174 73.28 174 78.56 174 84C173.67 84 173.34 84 173 84C173 81.69 173 79.38 173 77C172.01 76.67 171.02 76.34 170 76C170.66 76 171.32 76 172 76C172 75.01 172 74.02 172 73C170.35 73 168.7 73 167 73C171.75 68 171.75 68 174 68Z" fill="#B38F3D"/>
<path d="M34 65C36.31 65 38.62 65 41 65C40.34 66.98 39.68 68.96 39 71C39.66 71.66 40.32 72.32 41 73C40.34 73.66 39.68 74.32 39 75C34 69.5 34 69.5 34 65Z" fill="#CC9E40"/>
<path d="M122 117C122.908 117.186 123.815 117.371 124.75 117.562C127.683 117.957 129.264 117.947 132 117C132 118.333 132 119.667 132 121C130.542 121.027 129.083 121.046 127.625 121.062C126.813 121.074 126.001 121.086 125.164 121.098C123 121 123 121 121 120C121.33 119.01 121.66 118.02 122 117Z" fill="#E0AE43"/>
<path d="M223 127C223.99 127.33 224.98 127.66 226 128C226.688 130.062 226.688 130.062 227 132C227.99 132 228.98 132 230 132C230.33 132.99 230.66 133.98 231 135C228.125 135.125 228.125 135.125 225 135C223 133 223 133 222.875 129.875C222.916 128.926 222.957 127.978 223 127Z" fill="#CEA44A"/>
<path d="M316 123C322.625 122.75 322.625 122.75 326 125C325.67 126.32 325.34 127.64 325 129C324.67 128.01 324.34 127.02 324 126C321.03 126 318.06 126 315 126C315.33 125.01 315.66 124.02 316 123Z" fill="#C3A151"/>
<path d="M191 84C192.65 84 194.3 84 196 84C196 91.26 196 98.52 196 106C195.67 106 195.34 106 195 106C195 99.73 195 93.46 195 87C193.35 86.67 191.7 86.34 190 86C190.33 85.34 190.66 84.68 191 84Z" fill="#815C1E"/>
<path d="M88 94C88.66 94.33 89.32 94.66 90 95C90 95.99 90 96.98 90 98C89.34 98 88.68 98 88 98C87.67 100.31 87.34 102.62 87 105C86.67 104.34 86.34 103.68 86 103C85.01 103 84.02 103 83 103C84.2492 99.5407 85.6753 96.8531 88 94Z" fill="#E7AF31"/>
<path d="M250 87C250.33 88.32 250.66 89.64 251 91C253.97 91.495 253.97 91.495 257 92C252.25 96.875 252.25 96.875 250 98C250 94.37 250 90.74 250 87Z" fill="#C3913F"/>
<path d="M44 71C46.31 71.33 48.62 71.66 51 72C51.33 72.99 51.66 73.98 52 75C51.34 75.66 50.68 76.32 50 77C46.875 76.625 46.875 76.625 44 76C44 74.35 44 72.7 44 71Z" fill="#E7AF2D"/>
<path d="M377.688 69.375C378.451 69.5813 379.214 69.7875 380 70C380.33 70.99 380.66 71.98 381 73C378.03 75.475 378.03 75.475 375 78C375.093 76.8244 375.093 76.8244 375.188 75.625C375.126 74.7588 375.064 73.8925 375 73C374.01 72.34 373.02 71.68 372 71C375 69 375 69 377.688 69.375Z" fill="#C1983D"/>
<path d="M320 126C321.32 126 322.64 126 324 126C325.75 128.5 325.75 128.5 327 131C325.68 132.32 324.36 133.64 323 135C321.761 132.026 320.699 129.147 320 126Z" fill="#AB873B"/>
<path d="M363 123C365.31 123 367.62 123 370 123C369.01 123.66 368.02 124.32 367 125C366.267 128.066 366.267 128.066 366 131C364.68 130.34 363.36 129.68 362 129C362.33 127.02 362.66 125.04 363 123Z" fill="#F2994A"/>
<path d="M366 77C366.66 77.33 367.32 77.66 368 78C368 80 368 82 368 84C366.125 85.0625 366.125 85.0625 364 86C363.34 85.67 362.68 85.34 362 85C363.75 79.25 363.75 79.25 366 77Z" fill="#B98C30"/>
<path d="M325 72C325.66 72.33 326.32 72.66 327 73C326 77 326 77 325 81C323.35 81.33 321.7 81.66 320 82C320.615 78.0054 322.706 75.2553 325 72Z" fill="#B18D35"/>
<path d="M350 70C350.33 70.66 350.66 71.32 351 72C350.062 74.625 350.062 74.625 349 77C347.5 75.625 347.5 75.625 346 74C346 73.34 346 72.68 346 72C345.01 72 344.02 72 343 72C343 71.34 343 70.68 343 70C345.698 68.6512 347.152 69.1966 350 70Z" fill="#CFA33D"/>
<path d="M385 67C385.99 68.98 386.98 70.96 388 73C385.36 72.67 382.72 72.34 380 72C380 71.34 380 70.68 380 70C379.34 70 378.68 70 378 70C378 69.34 378 68.68 378 68C380.463 66.7686 382.28 66.9284 385 67Z" fill="#9C7E3D"/>
<path d="M115 125C115.66 125 116.32 125 117 125C116.967 127.051 116.935 129.102 116.902 131.152C116.794 133.017 116.794 133.017 118 134C118 132.68 118 131.36 118 130C118.66 130 119.32 130 120 130C120.33 131.98 120.66 133.96 121 136C119.02 136 117.04 136 115 136C115 132.37 115 128.74 115 125Z" fill="#8B6F33"/>
<path d="M383 124C385.64 124 388.28 124 391 124C391 124.66 391 125.32 391 126C390.01 126 389.02 126 388 126C388.33 127.65 388.66 129.3 389 131C388.01 131 387.02 131 386 131C385.67 129.35 385.34 127.7 385 126C384.34 126 383.68 126 383 126C383 125.34 383 124.68 383 124Z" fill="#DAB556"/>
<path d="M64 45C67.3746 45.5472 69.0824 46.0549 72 48C71 50 71 50 69.1875 50.875C67 51 67 51 64.75 49.0625C64.1725 48.3819 63.595 47.7013 63 47C63.33 46.34 63.66 45.68 64 45Z" fill="#CAA23E"/>
<path d="M148 105C148.562 106.938 148.562 106.938 149 109C148 110 148 110 145.438 110.062C144.231 110.032 144.231 110.032 143 110C142.67 110.66 142.34 111.32 142 112C140.125 111.812 140.125 111.812 138 111C136.75 108.438 136.75 108.438 136 106C136.66 106 137.32 106 138 106C138.33 106.66 138.66 107.32 139 108C141.97 108 144.94 108 148 108C148 107.01 148 106.02 148 105Z" fill="#986E26"/>
<path d="M310 85C310.33 85.66 310.66 86.32 311 87C311.66 87 312.32 87 313 87C313.124 88.1137 313.248 89.2275 313.375 90.375C313.647 94.031 313.647 94.031 316 96C315.01 97.485 315.01 97.485 314 99C312.142 95.865 311.799 93.6253 312 90C310.68 89.34 309.36 88.68 308 88C308 87.34 308 86.68 308 86C308.66 85.67 309.32 85.34 310 85Z" fill="#836425"/>
<path d="M367 127C369 129 369 129 369.125 131.625C369.084 132.409 369.043 133.192 369 134C366.69 134 364.38 134 362 134C362.312 132.062 362.312 132.062 363 130C363.99 129.67 364.98 129.34 366 129C366.33 128.34 366.66 127.68 367 127Z" fill="#E5AE51"/>
<path d="M284 110C287.3 110 290.6 110 294 110C294.33 110.99 294.66 111.98 295 113C291.7 113 288.4 113 285 113C284.67 112.01 284.34 111.02 284 110Z" fill="#BB9950"/>
<path d="M351 104C351.33 104.66 351.66 105.32 352 106C352.66 106 353.32 106 354 106C352.549 109.826 350.642 111.223 347 113C346.01 113 345.02 113 344 113C344 112.34 344 111.68 344 111C345.65 110.34 347.3 109.68 349 109C349 108.01 349 107.02 349 106C349.66 105.34 350.32 104.68 351 104Z" fill="#79632F"/>
<path d="M325 101C325.99 101.33 326.98 101.66 328 102C328 102.66 328 103.32 328 104C328.66 104 329.32 104 330 104C330 104.99 330 105.98 330 107C327.69 106.67 325.38 106.34 323 106C322.67 105.01 322.34 104.02 322 103C322.99 103 323.98 103 325 103C325 102.34 325 101.68 325 101Z" fill="#EAB13B"/>
<path d="M241 88C241.99 88.33 242.98 88.66 244 89C243.723 89.5079 243.446 90.0158 243.16 90.5391C240.967 94.7077 239.476 98.2413 239 103C238.67 103 238.34 103 238 103C238 99.04 238 95.08 238 91C238.99 91 239.98 91 241 91C241 90.01 241 89.02 241 88Z" fill="#D0A944"/>
<path d="M375 92C375.33 92 375.66 92 376 92C376.182 92.5917 376.363 93.1834 376.551 93.793C377.957 98.2125 379.375 102.125 382 106C380.68 106.33 379.36 106.66 378 107C378 105.35 378 103.7 378 102C377.34 102 376.68 102 376 102C374.393 98.7855 374.942 95.5639 375 92Z" fill="#BA8B35"/>
<path d="M307 86C308.709 87.6234 310.374 89.2932 312 91C312 91.66 312 92.32 312 93C310.344 93.3822 308.675 93.714 307 94C306 93 306 93 305.875 90C306 87 306 87 307 86Z" fill="#D2AB4B"/>
<path d="M82 86C82.99 86.66 83.98 87.32 85 88C85.1875 90.625 85.1875 90.625 85 93C83.02 93.99 83.02 93.99 81 95C80.34 93.02 79.68 91.04 79 89C79.99 88.67 80.98 88.34 82 88C82 87.34 82 86.68 82 86Z" fill="#AA832F"/>
<path d="M394 86C395.145 86.2475 395.145 86.2475 396.312 86.5C399.036 87.0915 399.036 87.0915 402 87C401.25 88.9375 401.25 88.9375 400 91C397.875 91.75 397.875 91.75 396 92C395.67 91.01 395.34 90.02 395 89C394.01 88.67 393.02 88.34 392 88C392.66 88 393.32 88 394 88C394 87.34 394 86.68 394 86Z" fill="#CC9D3A"/>
<path d="M105 73C105.66 73.66 106.32 74.32 107 75C109.211 75.2425 109.211 75.2425 111.625 75.125C112.442 75.107 113.26 75.0889 114.102 75.0703C114.728 75.0471 115.355 75.0239 116 75C111.487 77.3082 108.094 78.1306 103 78C102.01 78 101.02 78 100 78C101.65 76.35 103.3 74.7 105 73Z" fill="#956F2B"/>
<path d="M280 72C281.525 72.0894 283.047 72.2454 284.562 72.4375C285.802 72.5903 285.802 72.5903 287.066 72.7461C287.704 72.8299 288.343 72.9137 289 73C286.572 75.428 283.87 77.1282 281 79C281 77.35 281 75.7 281 74C280.34 73.67 279.68 73.34 279 73C279.33 72.67 279.66 72.34 280 72Z" fill="#A17E39"/>
<path d="M238 68C242.95 68.99 242.95 68.99 248 70C248 70.33 248 70.66 248 71C247.092 71.2269 246.185 71.4537 245.25 71.6875C241.551 73.1813 240.221 74.754 238 78C238.486 74.8771 238.999 72.0042 240 69C239.34 68.67 238.68 68.34 238 68Z" fill="#F2994A"/>
<path d="M248 124C250.938 124.375 250.938 124.375 254 125C254.33 125.66 254.66 126.32 255 127C253.625 128.5 253.625 128.5 252 130C251.34 130 250.68 130 250 130C249.67 130.66 249.34 131.32 249 132C248.67 129.36 248.34 126.72 248 124Z" fill="#CDA444"/>
<path d="M351 109C348 111 348 111 344 111C344 111.66 344 112.32 344 113C340.522 114.159 338.541 113.708 335 113C335 112.67 335 112.34 335 112C336.093 111.691 337.186 111.381 338.312 111.062C340.554 110.417 342.787 109.738 345 109C348 108 348 108 351 109Z" fill="#DBB54B"/>
<path d="M324 106C327.017 106.14 329.238 106.294 331.512 108.402C332.733 109.889 333.872 111.441 335 113C331.051 112.436 328.244 111.343 325 109C324.67 108.01 324.34 107.02 324 106Z" fill="#BC913D"/>
<path d="M155 104C155.778 106.333 156.424 108.614 157 111C156.01 111.33 155.02 111.66 154 112C154 111.34 154 110.68 154 110C153.34 110 152.68 110 152 110C152 109.34 152 108.68 152 108C151.34 107.67 150.68 107.34 150 107C151.65 106.01 153.3 105.02 155 104Z" fill="#B68A33"/>
<path d="M92 87C92.66 87.33 93.32 87.66 94 88C94 88.99 94 89.98 94 91C94.99 91.33 95.98 91.66 97 92C96.0311 93.685 95.0301 95.3518 94 97C93.67 97 93.34 97 93 97C92.67 95.02 92.34 93.04 92 91C91.01 90.67 90.02 90.34 89 90C89.99 89.01 90.98 88.02 92 87Z" fill="#BD9435"/>
<path d="M195 79C194.67 80.65 194.34 82.3 194 84C192.02 84.66 190.04 85.32 188 86C188 84.68 188 83.36 188 82C192.071 79 192.071 79 195 79Z" fill="#D8AC49"/>
<path d="M78 58C78.66 58 79.32 58 80 58C80 60.64 80 63.28 80 66C77.8313 65.494 76.0003 65.0002 74 64C74 63.34 74 62.68 74 62C75.32 62 76.64 62 78 62C78 60.68 78 59.36 78 58Z" fill="#927A39"/>
<path d="M292 130C292.66 130 293.32 130 294 130C294.66 131.65 295.32 133.3 296 135C293.291 136.354 290.991 136.065 288 136C287.67 135.34 287.34 134.68 287 134C287.66 133.34 288.32 132.68 289 132C289.99 132.66 290.98 133.32 292 134C292 132.68 292 131.36 292 130Z" fill="#8B7338"/>
<path d="M325 84C326.052 84.6394 327.104 85.2788 328.188 85.9375C331.108 87.6175 333.617 88.59 337 89C337 89.33 337 89.66 337 90C336.051 89.9794 335.103 89.9588 334.125 89.9375C331.093 89.7745 331.093 89.7745 329 91C329 90.34 329 89.68 329 89C327.68 88.67 326.36 88.34 325 88C325 86.68 325 85.36 325 84Z" fill="#C09327"/>
<path d="M186 82C186.99 82.33 187.98 82.66 189 83C189.625 84.9375 189.625 84.9375 190 87C190.33 87.66 190.66 88.32 191 89C189.68 89.33 188.36 89.66 187 90C186.67 89.34 186.34 88.68 186 88C186.33 87.01 186.66 86.02 187 85C186.34 85 185.68 85 185 85C184.67 85.66 184.34 86.32 184 87C183.34 86.34 182.68 85.68 182 85C183.812 83.4375 183.812 83.4375 186 82Z" fill="#977A2C"/>
<path d="M94 48C93.67 49.32 93.34 50.64 93 52C91.02 52.33 89.04 52.66 87 53C86.67 52.01 86.34 51.02 86 50C91.75 48 91.75 48 94 48Z" fill="#AD8C43"/>
<path d="M254 123C256.31 123 258.62 123 261 123C260.001 125.997 259.349 127.027 257 129C256.34 129 255.68 129 255 129C254.67 127.02 254.34 125.04 254 123Z" fill="#917B34"/>
<path d="M152 114C150.545 114.838 149.086 115.671 147.625 116.5C146.407 117.196 146.407 117.196 145.164 117.906C143 119 143 119 141 119C141 118.01 141 117.02 141 116C147.964 112.652 147.964 112.652 152 114Z" fill="#AD8939"/>
<path d="M304 106C305.65 106.33 307.3 106.66 309 107C309 107.66 309 108.32 309 109C305.582 111.539 303.242 112.364 299 112C300 110 300 110 303 109C303.33 108.01 303.66 107.02 304 106Z" fill="#C89C42"/>
<path d="M212 106C213.32 106.33 214.64 106.66 216 107C215.67 109.31 215.34 111.62 215 114C214.01 113.67 213.02 113.34 212 113C212 110.69 212 108.38 212 106Z" fill="#C89E3F"/>
<path d="M143 99C144.429 101.354 145.087 102.48 144.625 105.25C144.419 105.827 144.213 106.405 144 107C142.35 107 140.7 107 139 107C139 106.34 139 105.68 139 105C139.99 105 140.98 105 142 105C141.34 103.68 140.68 102.36 140 101C140.99 101 141.98 101 143 101C143 100.34 143 99.68 143 99Z" fill="#EAAF29"/>
<path d="M324 95C324.66 95 325.32 95 326 95C326 95.66 326 96.32 326 97C327.65 96.34 329.3 95.68 331 95C330.67 96.98 330.34 98.96 330 101C330.66 101 331.32 101 332 101C332 101.66 332 102.32 332 103C331.01 103 330.02 103 329 103C328.732 102.402 328.464 101.804 328.188 101.188C327.014 99.0253 325.764 97.6838 324 96C324 95.67 324 95.34 324 95Z" fill="#E8B944"/>
<path d="M169 94C169.66 94.33 170.32 94.66 171 95C171 95.99 171 96.98 171 98C171.66 98.66 172.32 99.32 173 100C171.02 100.99 171.02 100.99 169 102C168.876 101.361 168.752 100.721 168.625 100.062C168.316 99.0416 168.316 99.0416 168 98C167.34 97.67 166.68 97.34 166 97C166 96.34 166 95.68 166 95C166.99 94.67 167.98 94.34 169 94Z" fill="#9A7428"/>
<path d="M37 60C37.66 60.33 38.32 60.66 39 61C39.625 63.5625 39.625 63.5625 40 66C37.69 65.67 35.38 65.34 33 65C33.66 64.67 34.32 64.34 35 64C35 63.01 35 62.02 35 61C35.66 60.67 36.32 60.34 37 60Z" fill="#E9B329"/>
<path d="M145 129C145.33 129.99 145.66 130.98 146 132C146.66 132 147.32 132 148 132C148 133.32 148 134.64 148 136C142.25 136.125 142.25 136.125 140 135C140.33 134.34 140.66 133.68 141 133C142.98 133.495 142.98 133.495 145 134C145 132.35 145 130.7 145 129Z" fill="#7F6C38"/>
<path d="M259 127C259.33 127 259.66 127 260 127C260 129.64 260 132.28 260 135C259.01 135.33 258.02 135.66 257 136C256.01 134.68 255.02 133.36 254 132C255.32 132 256.64 132 258 132C258.33 130.35 258.66 128.7 259 127Z" fill="#AE9244"/>
<path d="M345 123C346.98 123 348.96 123 351 123C350.398 125.02 349.727 127.021 349 129C348.01 129.495 348.01 129.495 347 130C347 128.68 347 127.36 347 126C346.34 126 345.68 126 345 126C345 125.01 345 124.02 345 123Z" fill="#9F864A"/>
<path d="M163.562 122.938C164.697 122.958 165.831 122.979 167 123C167.33 124.65 167.66 126.3 168 128C165.062 127.625 165.062 127.625 162 127C161.67 126.34 161.34 125.68 161 125C160.34 124.67 159.68 124.34 159 124C160 123 160 123 163.562 122.938Z" fill="#9B7733"/>
<path d="M381 109C383.97 109.33 386.94 109.66 390 110C390 110.66 390 111.32 390 112C386.37 112 382.74 112 379 112C379.66 111.01 380.32 110.02 381 109Z" fill="#EAB037"/>
<path d="M336 105C341.94 106.485 341.94 106.485 348 108C343.468 110.266 341.822 109.927 337 109C336.67 107.68 336.34 106.36 336 105Z" fill="#B38E3C"/>
<path d="M177 92C177 92.66 177 93.32 177 94C175.68 94 174.36 94 173 94C173.33 95.65 173.66 97.3 174 99C172.68 98.67 171.36 98.34 170 98C170.312 96.125 170.312 96.125 171 94C174 92 174 92 177 92Z" fill="#E6B444"/>
<path d="M191 88C191.66 88.33 192.32 88.66 193 89C191.35 89.66 189.7 90.32 188 91C188 91.66 188 92.32 188 93C187.34 93 186.68 93 186 93C185.67 94.32 185.34 95.64 185 97C184.25 95.25 184.25 95.25 184 93C186.219 90.2267 187.606 89.1313 191 88Z" fill="#D2A848"/>
<path d="M396 73C401.571 78.1429 401.571 78.1429 402 82C401.01 81.67 400.02 81.34 399 81C398.312 78.9375 398.312 78.9375 398 77C397.34 77 396.68 77 396 77C396 75.68 396 74.36 396 73Z" fill="#B58D3E"/>
<path d="M91 78C91.99 78 92.98 78 94 78C94.75 79.75 94.75 79.75 95 82C93.1875 84.25 93.1875 84.25 91 86C90.34 86 89.68 86 89 86C89 84.35 89 82.7 89 81C90.32 81.33 91.64 81.66 93 82C93 81.01 93 80.02 93 79C92.34 78.67 91.68 78.34 91 78Z" fill="#93722F"/>
<path d="M388 74C391.733 75.4449 391.733 75.4449 392.812 77.6875C393.072 80.891 392.546 83.8448 392 87C391.34 86.67 390.68 86.34 390 86C389.621 84.0391 389.621 84.0391 389.438 81.625C389.212 78.8052 388.904 76.7134 388 74Z" fill="#907A2C"/>
<path d="M41 27C43.6219 28.0487 44.7937 28.6493 46.25 31.125C46.4975 31.7437 46.745 32.3625 47 33C46.01 33 45.02 33 44 33C43.67 32.34 43.34 31.68 43 31C42.34 31 41.68 31 41 31C40.67 31.99 40.34 32.98 40 34C39.375 32.1875 39.375 32.1875 39 30C39.66 29.01 40.32 28.02 41 27Z" fill="#AD7F34"/>
<path d="M384 126C386 128 386 128 386 131C386.66 131.33 387.32 131.66 388 132C387.01 133.485 387.01 133.485 386 135C385.01 135 384.02 135 383 135C383.33 132.03 383.66 129.06 384 126Z" fill="#A98840"/>
<path d="M136.188 118.375C137.085 118.684 137.085 118.684 138 119C137 121 137 121 135.375 121.625C132.234 122.121 129.174 122.061 126 122C126 121.67 126 121.34 126 121C126.763 120.876 127.526 120.752 128.312 120.625C131.453 119.895 132.991 117.827 136.188 118.375Z" fill="#AB8D33"/>
<path d="M194 106C194.66 106 195.32 106 196 106C196 107.98 196 109.96 196 112C192.04 112 188.08 112 184 112C184.33 111.01 184.66 110.02 185 109C188.3 109.66 191.6 110.32 195 111C194.67 109.35 194.34 107.7 194 106Z" fill="#E5B441"/>
<path d="M281 106C284.465 107.485 284.465 107.485 288 109C286.875 110.562 286.875 110.562 285 112C281.812 111.688 281.812 111.688 279 111C279 110.34 279 109.68 279 109C279.66 109 280.32 109 281 109C281 108.01 281 107.02 281 106Z" fill="#886D34"/>
<path d="M94 85C96.0625 85.4375 96.0625 85.4375 98 86C97.67 87.98 97.34 89.96 97 92C96.01 91.67 95.02 91.34 94 91C93.6178 89.3439 93.286 87.6754 93 86C93.33 85.67 93.66 85.34 94 85Z" fill="#E4B243"/>
<path d="M281 74C281.188 76.375 281.188 76.375 281 79C280.01 79.66 279.02 80.32 278 81C277.67 80.01 277.34 79.02 277 78C276.34 77.67 275.68 77.34 275 77C277.625 74 277.625 74 281 74Z" fill="#C19E44"/>
<path d="M232 72C232.66 72 233.32 72 234 72C234 73.32 234 74.64 234 76C234.99 76.33 235.98 76.66 237 77C236.67 77.99 236.34 78.98 236 80C234.35 78.68 232.7 77.36 231 76C231.33 74.68 231.66 73.36 232 72Z" fill="#A88940"/>
<path d="M166 73C166.66 73.99 167.32 74.98 168 76C161.25 78.125 161.25 78.125 159 77C159 76.34 159 75.68 159 75C161.31 74.34 163.62 73.68 166 73Z" fill="#927633"/>
<path d="M350 72C353 72 353 72 354.688 73.5C355.121 73.995 355.554 74.49 356 75C355.67 75.66 355.34 76.32 355 77C353.02 77 351.04 77 349 77C349.33 75.35 349.66 73.7 350 72Z" fill="#BC9536"/>
<path d="M146 68C146 71.63 146 75.26 146 79C145.67 79 145.34 79 145 79C145 77.02 145 75.04 145 73C143.35 73 141.7 73 140 73C144.875 68 144.875 68 146 68Z" fill="#B59344"/>
<path d="M68 52C68.99 52 69.98 52 71 52C74.0769 57.4154 74.0769 57.4154 73.6875 60.375C73.4606 60.9112 73.2338 61.4475 73 62C70.9022 59.9022 70.3491 58.6201 69.375 55.875C69.1146 55.1505 68.8542 54.4261 68.5859 53.6797C68.3926 53.1254 68.1992 52.5711 68 52Z" fill="#B18F41"/>
<path d="M47 45C49.64 45 52.28 45 55 45C54.34 46.32 53.68 47.64 53 49C52.01 49 51.02 49 50 49C50 48.34 50 47.68 50 47C49.01 46.67 48.02 46.34 47 46C47 45.67 47 45.34 47 45Z" fill="#D7AE4C"/>
<path d="M67 43C66.67 43.66 66.34 44.32 66 45C65.34 45 64.68 45 64 45C64 45.66 64 46.32 64 47C61.36 46.67 58.72 46.34 56 46C59.5145 42.6261 62.2606 42.7266 67 43Z" fill="#DAA966"/>
<path d="M127 97C127.33 97 127.66 97 128 97C128 100.96 128 104.92 128 109C127.01 108.34 126.02 107.68 125 107C125.66 103.7 126.32 100.4 127 97Z" fill="#ECBA43"/>
<path d="M318 91C319.478 93.9566 319.06 96.7423 319 100C316.659 97.8722 315.293 95.8844 314 93C315.32 92.34 316.64 91.68 318 91Z" fill="#C19233"/>
<path d="M305 81C306.32 81 307.64 81 309 81C309.33 81.66 309.66 82.32 310 83C310.66 82.67 311.32 82.34 312 82C311.312 83.9375 311.312 83.9375 310 86C307.375 86.75 307.375 86.75 305 87C305.66 86.01 306.32 85.02 307 84C306.34 83.01 305.68 82.02 305 81Z" fill="#AA8733"/>
<path d="M138 73C138.66 73.33 139.32 73.66 140 74C139.67 74.66 139.34 75.32 139 76C138.34 76 137.68 76 137 76C136.67 77.65 136.34 79.3 136 81C133 77.25 133 77.25 133 75C135.375 73.9375 135.375 73.9375 138 73Z" fill="#A3843B"/>
<path d="M72 48C77.7846 52.4308 77.7846 52.4308 78.875 55.3125C78.9369 56.1478 78.9369 56.1478 79 57C77.35 56.67 75.7 56.34 74 56C73.34 53.36 72.68 50.72 72 48Z" fill="#AA8332"/>
<path d="M354 100C354.99 100.66 355.98 101.32 357 102C356.34 103.32 355.68 104.64 355 106C354.01 106 353.02 106 352 106C352.875 101.125 352.875 101.125 354 100Z" fill="#A98748"/>
<path d="M312 95C312.66 95.33 313.32 95.66 314 96C313.512 102.055 313.512 102.055 313 104C312.01 104.66 311.02 105.32 310 106C310 105.01 310 104.02 310 103C310.66 103 311.32 103 312 103C311.814 102.051 311.629 101.103 311.438 100.125C311 97 311 97 312 95Z" fill="#B3883F"/>
<path d="M219 73C219.99 73 220.98 73 222 73C222.33 75.31 222.66 77.62 223 80C222.34 80 221.68 80 221 80C219.539 77.3526 219 76.1055 219 73Z" fill="#B48E34"/>
<path d="M180 131C180.33 131.99 180.66 132.98 181 134C182.65 133.67 184.3 133.34 186 133C186 133.99 186 134.98 186 136C184.02 136 182.04 136 180 136C179.67 135.01 179.34 134.02 179 133C179.33 132.34 179.66 131.68 180 131Z" fill="#9A8045"/>
<path d="M140 123C140.99 123 141.98 123 143 123C143.33 123.99 143.66 124.98 144 126C142.562 128.188 142.562 128.188 141 130C140.34 128.02 139.68 126.04 139 124C139.33 123.67 139.66 123.34 140 123Z" fill="#F2994A"/>
<path d="M287 124C289.31 124 291.62 124 294 124C293.34 125.32 292.68 126.64 292 128C292 127.34 292 126.68 292 126C291.34 126 290.68 126 290 126C289.67 127.32 289.34 128.64 289 130C288.34 128.02 287.68 126.04 287 124Z" fill="#B99B59"/>
<path d="M205 123C206.98 123 208.96 123 211 123C211 123.66 211 124.32 211 125C210.01 125 209.02 125 208 125C208.33 126.98 208.66 128.96 209 131C208.34 131 207.68 131 207 131C207 129.02 207 127.04 207 125C206.34 125 205.68 125 205 125C205 124.34 205 123.68 205 123Z" fill="#C1A159"/>
<path d="M229 113C230.65 113 232.3 113 234 113C234.66 114.65 235.32 116.3 236 118C235.01 118.33 234.02 118.66 233 119C232.897 118.381 232.794 117.762 232.688 117.125C232.125 114.635 232.125 114.635 229 113Z" fill="#CFA33E"/>
<path d="M74 94C76.31 94.33 78.62 94.66 81 95C79.6875 96.5 79.6875 96.5 78 98C77.01 98 76.02 98 75 98C74.67 96.68 74.34 95.36 74 94Z" fill="#A18538"/>
<path d="M243.848 84.9023C245.898 84.9349 247.949 84.9674 250 85C250 85.66 250 86.32 250 87C247.085 87.8097 245.539 88.2185 242.688 87.0625C242.131 86.7119 241.574 86.3613 241 86C242 85 242 85 243.848 84.9023Z" fill="#B6944F"/>
<path d="M238 69C238.66 69 239.32 69 240 69C239.67 70.65 239.34 72.3 239 74C237.68 74.33 236.36 74.66 235 75C235 74.01 235 73.02 235 72C235.66 72 236.32 72 237 72C237.33 71.01 237.66 70.02 238 69Z" fill="#E7B33A"/>
<path d="M242 67C250.193 66.5273 250.193 66.5273 253.562 68.5C254.037 68.995 254.511 69.49 255 70C253.02 70 251.04 70 249 70C249 69.34 249 68.68 249 68C246.69 68 244.38 68 242 68C242 67.67 242 67.34 242 67Z" fill="#765D21"/>
<path d="M46 47C47.32 47 48.64 47 50 47C50 47.66 50 48.32 50 49C50.66 49.33 51.32 49.66 52 50C49.69 50.66 47.38 51.32 45 52C45.33 50.35 45.66 48.7 46 47Z" fill="#D8A02E"/>
<path d="M57 25C57.33 26.65 57.66 28.3 58 30C56.35 29.67 54.7 29.34 53 29C52.67 28.01 52.34 27.02 52 26C55 25 55 25 57 25Z" fill="#EDB13A"/>
<path d="M267 131C267.33 131.66 267.66 132.32 268 133C267.01 134.485 267.01 134.485 266 136C264.68 136 263.36 136 262 136C262 135.01 262 134.02 262 133C263.65 132.34 265.3 131.68 267 131Z" fill="#867042"/>
<path d="M278 126C278.66 126.66 279.32 127.32 280 128C279.625 131.125 279.625 131.125 279 134C278.01 133.67 277.02 133.34 276 133C276.66 130.69 277.32 128.38 278 126Z" fill="#EAAB39"/>
<path d="M37 129C36.67 129.66 36.34 130.32 36 131C33.36 131 30.72 131 28 131C28 130.34 28 129.68 28 129C31.0689 127.466 33.7009 128.45 37 129Z" fill="#D6A545"/>
<path d="M224 124C224.33 124.66 224.66 125.32 225 126C225.99 126.33 226.98 126.66 228 127C227.072 127.402 227.072 127.402 226.125 127.812C223.7 128.956 223.7 128.956 222 132C221.875 129.125 221.875 129.125 222 126C222.66 125.34 223.32 124.68 224 124Z" fill="#8D733A"/>
<path d="M119 115C120.98 115 122.96 115 125 115C125 115.66 125 116.32 125 117C125.66 117.33 126.32 117.66 127 118C125.824 117.969 125.824 117.969 124.625 117.938C122.019 117.813 122.019 117.813 120 119C119.67 117.68 119.34 116.36 119 115Z" fill="#C1962D"/>
<path d="M235 111C237.962 111.613 239.381 112.254 242 114C241 115 241 115 238.438 115.062C237.231 115.032 237.231 115.032 236 115C235.67 113.68 235.34 112.36 235 111Z" fill="#D7A339"/>
<path d="M163.562 100.938C164.769 100.968 164.769 100.968 166 101C165.34 102.65 164.68 104.3 164 106C163.01 105.67 162.02 105.34 161 105C160.67 104.01 160.34 103.02 160 102C161 101 161 101 163.562 100.938Z" fill="#E0B73D"/>
<path d="M390 72C391.32 72.33 392.64 72.66 394 73C394 74.32 394 75.64 394 77C392.68 76.34 391.36 75.68 390 75C390 74.01 390 73.02 390 72Z" fill="#EBAE2D"/>
<path d="M372 72C373.98 72.495 373.98 72.495 376 73C375.67 74.65 375.34 76.3 375 78C373.68 77.34 372.36 76.68 371 76C371.33 74.68 371.66 73.36 372 72Z" fill="#E5B041"/>
<path d="M36.0001 54C37.2736 56.547 36.802 57.4283 36.0626 60.125C35.8679 60.8495 35.6733 61.5739 35.4727 62.3203C35.3167 62.8746 35.1608 63.4289 35.0001 64C33.4297 61.5059 32.9726 60.2956 33.2501 57.3125C33.4976 56.5494 33.7451 55.7862 34.0001 55C34.6601 54.67 35.3201 54.34 36.0001 54Z" fill="#D2A94C"/>
<path d="M85 106C83.6067 109.367 82.0211 110.986 79 113C79.6284 109.355 80.8535 106 85 106Z" fill="#AA8739"/>
<path d="M326 101C326.99 101 327.98 101 329 101C329 101.66 329 102.32 329 103C329.639 103.124 330.279 103.248 330.938 103.375C331.618 103.581 332.299 103.787 333 104C333.33 104.66 333.66 105.32 334 106C333.01 106 332.02 106 331 106C330.67 106.66 330.34 107.32 330 108C330 106.68 330 105.36 330 104C329.34 104 328.68 104 328 104C328 103.34 328 102.68 328 102C327.34 101.67 326.68 101.34 326 101Z" fill="#E2B029"/>
<path d="M305 91C305.66 91.66 306.32 92.32 307 93C306.625 95.625 306.625 95.625 306 98C305.01 98.33 304.02 98.66 303 99C303.66 96.36 304.32 93.72 305 91Z" fill="#A18037"/>
<path d="M90 96C90.66 97.32 91.32 98.64 92 100C91.34 100 90.68 100 90 100C89.34 101.65 88.68 103.3 88 105C86.9555 101.867 87.0658 101.01 88 98C88.66 98 89.32 98 90 98C90 97.34 90 96.68 90 96Z" fill="#C19A38"/>
<path d="M384 87C385.65 87 387.3 87 389 87C388.67 88.32 388.34 89.64 388 91C386.68 91 385.36 91 384 91C384 89.68 384 88.36 384 87Z" fill="#EAB340"/>
<path d="M266 86C268.475 86.495 268.475 86.495 271 87C270.34 88.32 269.68 89.64 269 91C268.01 90.67 267.02 90.34 266 90C266 88.68 266 87.36 266 86Z" fill="#D4AB45"/>
<path d="M40 67C40.66 67.33 41.32 67.66 42 68C42.625 70.0625 42.625 70.0625 43 72C42.01 72.495 42.01 72.495 41 73C40.01 72.34 39.02 71.68 38 71C38.66 69.68 39.32 68.36 40 67Z" fill="#EBAE2A"/>
</g>
</g>
<defs>
<clipPath id="clip0_20_479">
<rect width="428" height="168" fill="white"/>
</clipPath>
<clipPath id="clip1_20_479">
<rect width="374" height="666" fill="white" transform="translate(28 -257)"/>
</clipPath>
</defs>
</svg>
